{
 "cells": [
  {
   "cell_type": "code",
   "execution_count": 1,
   "metadata": {},
   "outputs": [],
   "source": [
    "import mido\n",
    "import json\n",
    "from datetime import datetime"
   ]
  },
  {
   "cell_type": "code",
   "execution_count": 24,
   "metadata": {},
   "outputs": [
    {
     "data": {
      "text/plain": [
       "'D3'"
      ]
     },
     "execution_count": 24,
     "metadata": {},
     "output_type": "execute_result"
    }
   ],
   "source": [
    "notes_alone = [\"C\", \"C#\", \"D\", \"D#\", \"E\", \"F\", \"F#\", \"G\", \"G#\", \"A\", \"A#\", \"B\"]\n",
    "notes = [i + str(j) for j in range(8) for i in notes_alone]\n",
    "notes[38]"
   ]
  },
  {
   "cell_type": "code",
   "execution_count": 16,
   "metadata": {},
   "outputs": [
    {
     "name": "stdout",
     "output_type": "stream",
     "text": [
      "Track 0: \n",
      "Track 1: Melody\n",
      "note_off channel=0 note=86 velocity=90 time=96\n",
      "note_on channel=0 note=85 velocity=100 time=0\n",
      "note_off channel=0 note=85 velocity=90 time=96\n",
      "note_on channel=0 note=84 velocity=100 time=0\n",
      "note_off channel=0 note=84 velocity=90 time=96\n",
      "note_on channel=0 note=83 velocity=100 time=0\n",
      "note_off channel=0 note=83 velocity=90 time=96\n",
      "note_on channel=0 note=84 velocity=100 time=0\n",
      "note_off channel=0 note=84 velocity=90 time=96\n",
      "note_on channel=0 note=83 velocity=100 time=0\n",
      "note_off channel=0 note=83 velocity=90 time=96\n",
      "note_on channel=0 note=82 velocity=100 time=0\n",
      "note_off channel=0 note=82 velocity=90 time=96\n",
      "note_on channel=0 note=81 velocity=100 time=0\n",
      "note_off channel=0 note=81 velocity=90 time=96\n",
      "note_on channel=0 note=80 velocity=100 time=0\n",
      "note_off channel=0 note=80 velocity=90 time=96\n",
      "note_on channel=0 note=79 velocity=100 time=0\n",
      "note_off channel=0 note=79 velocity=90 time=96\n",
      "note_on channel=0 note=78 velocity=100 time=0\n",
      "note_off channel=0 note=78 velocity=90 time=96\n",
      "note_on channel=0 note=77 velocity=100 time=0\n",
      "note_off channel=0 note=77 velocity=90 time=96\n",
      "note_on channel=0 note=76 velocity=100 time=0\n",
      "note_off channel=0 note=76 velocity=90 time=96\n",
      "note_on channel=0 note=75 velocity=100 time=0\n",
      "note_off channel=0 note=75 velocity=90 time=96\n",
      "note_on channel=0 note=74 velocity=100 time=0\n",
      "note_off channel=0 note=74 velocity=90 time=96\n",
      "note_on channel=0 note=73 velocity=100 time=0\n",
      "note_off channel=0 note=73 velocity=90 time=96\n",
      "note_on channel=0 note=74 velocity=100 time=0\n",
      "note_off channel=0 note=74 velocity=90 time=96\n",
      "note_on channel=0 note=73 velocity=100 time=0\n",
      "note_off channel=0 note=73 velocity=90 time=96\n",
      "note_on channel=0 note=72 velocity=100 time=0\n",
      "note_off channel=0 note=72 velocity=90 time=96\n",
      "note_on channel=0 note=71 velocity=100 time=0\n",
      "note_off channel=0 note=71 velocity=90 time=96\n",
      "note_on channel=0 note=72 velocity=100 time=0\n",
      "note_off channel=0 note=72 velocity=90 time=96\n",
      "note_on channel=0 note=71 velocity=100 time=0\n",
      "note_off channel=0 note=71 velocity=90 time=96\n",
      "note_on channel=0 note=70 velocity=100 time=0\n",
      "note_off channel=0 note=70 velocity=90 time=96\n",
      "note_on channel=0 note=69 velocity=100 time=0\n",
      "note_off channel=0 note=69 velocity=90 time=96\n",
      "note_on channel=0 note=68 velocity=100 time=0\n",
      "note_off channel=0 note=68 velocity=90 time=96\n",
      "note_on channel=0 note=67 velocity=100 time=0\n",
      "note_off channel=0 note=67 velocity=90 time=96\n",
      "note_on channel=0 note=66 velocity=100 time=0\n",
      "note_off channel=0 note=66 velocity=90 time=96\n",
      "note_on channel=0 note=65 velocity=100 time=0\n",
      "note_off channel=0 note=65 velocity=90 time=96\n",
      "note_on channel=0 note=64 velocity=100 time=0\n",
      "note_off channel=0 note=64 velocity=90 time=96\n",
      "note_on channel=0 note=63 velocity=100 time=0\n",
      "note_off channel=0 note=63 velocity=90 time=96\n",
      "note_on channel=0 note=62 velocity=100 time=0\n",
      "note_off channel=0 note=62 velocity=90 time=96\n",
      "note_on channel=0 note=61 velocity=100 time=0\n",
      "note_off channel=0 note=61 velocity=90 time=96\n",
      "note_on channel=0 note=62 velocity=100 time=0\n",
      "note_off channel=0 note=62 velocity=90 time=96\n",
      "note_on channel=0 note=61 velocity=100 time=0\n",
      "note_off channel=0 note=61 velocity=90 time=96\n",
      "note_on channel=0 note=60 velocity=100 time=0\n",
      "note_off channel=0 note=60 velocity=90 time=96\n",
      "note_on channel=0 note=59 velocity=100 time=0\n",
      "note_off channel=0 note=59 velocity=90 time=96\n",
      "note_on channel=0 note=64 velocity=100 time=0\n",
      "note_off channel=0 note=64 velocity=90 time=96\n",
      "note_on channel=0 note=63 velocity=100 time=0\n",
      "note_off channel=0 note=63 velocity=90 time=96\n",
      "note_on channel=0 note=62 velocity=100 time=0\n",
      "note_off channel=0 note=62 velocity=90 time=96\n",
      "note_on channel=0 note=61 velocity=100 time=0\n",
      "note_off channel=0 note=61 velocity=90 time=96\n",
      "note_on channel=0 note=62 velocity=100 time=0\n",
      "note_off channel=0 note=62 velocity=90 time=96\n",
      "note_on channel=0 note=61 velocity=100 time=0\n",
      "note_off channel=0 note=61 velocity=90 time=96\n",
      "note_on channel=0 note=60 velocity=100 time=0\n",
      "note_off channel=0 note=60 velocity=90 time=96\n",
      "note_on channel=0 note=59 velocity=100 time=0\n",
      "note_off channel=0 note=59 velocity=90 time=96\n",
      "note_on channel=0 note=60 velocity=100 time=0\n",
      "note_on channel=0 note=64 velocity=100 time=0\n",
      "note_off channel=0 note=60 velocity=90 time=96\n",
      "note_off channel=0 note=64 velocity=90 time=0\n",
      "note_on channel=0 note=63 velocity=100 time=0\n",
      "note_off channel=0 note=63 velocity=90 time=96\n",
      "note_on channel=0 note=62 velocity=100 time=0\n",
      "note_off channel=0 note=62 velocity=90 time=96\n",
      "note_on channel=0 note=61 velocity=100 time=0\n",
      "note_off channel=0 note=61 velocity=90 time=96\n",
      "note_on channel=0 note=60 velocity=100 time=0\n",
      "note_off channel=0 note=60 velocity=90 time=96\n",
      "note_on channel=0 note=65 velocity=100 time=0\n",
      "note_off channel=0 note=65 velocity=90 time=96\n",
      "note_on channel=0 note=64 velocity=100 time=0\n",
      "note_off channel=0 note=64 velocity=90 time=96\n",
      "note_on channel=0 note=63 velocity=100 time=0\n",
      "note_off channel=0 note=63 velocity=90 time=96\n",
      "note_on channel=0 note=60 velocity=100 time=0\n",
      "note_on channel=0 note=64 velocity=100 time=0\n",
      "note_off channel=0 note=60 velocity=90 time=96\n",
      "note_off channel=0 note=64 velocity=90 time=0\n",
      "note_on channel=0 note=63 velocity=100 time=0\n",
      "note_off channel=0 note=63 velocity=90 time=96\n",
      "note_on channel=0 note=62 velocity=100 time=0\n",
      "note_off channel=0 note=62 velocity=90 time=96\n",
      "note_on channel=0 note=61 velocity=100 time=0\n",
      "note_off channel=0 note=61 velocity=90 time=96\n",
      "note_on channel=0 note=60 velocity=100 time=0\n",
      "note_off channel=0 note=60 velocity=90 time=96\n",
      "note_on channel=0 note=61 velocity=100 time=0\n",
      "note_off channel=0 note=61 velocity=90 time=96\n",
      "note_on channel=0 note=62 velocity=100 time=0\n",
      "note_off channel=0 note=62 velocity=90 time=96\n",
      "note_on channel=0 note=63 velocity=100 time=0\n",
      "note_off channel=0 note=63 velocity=90 time=96\n",
      "note_on channel=0 note=60 velocity=100 time=0\n",
      "note_on channel=0 note=64 velocity=100 time=0\n",
      "note_off channel=0 note=60 velocity=90 time=96\n",
      "note_off channel=0 note=64 velocity=90 time=0\n",
      "note_on channel=0 note=63 velocity=100 time=0\n",
      "note_off channel=0 note=63 velocity=90 time=96\n",
      "note_on channel=0 note=62 velocity=100 time=0\n",
      "note_off channel=0 note=62 velocity=90 time=96\n",
      "note_on channel=0 note=61 velocity=100 time=0\n",
      "note_off channel=0 note=61 velocity=90 time=96\n",
      "note_on channel=0 note=60 velocity=100 time=0\n",
      "note_off channel=0 note=60 velocity=90 time=96\n",
      "note_on channel=0 note=65 velocity=100 time=0\n",
      "note_off channel=0 note=65 velocity=90 time=96\n",
      "note_on channel=0 note=64 velocity=100 time=0\n",
      "note_off channel=0 note=64 velocity=90 time=96\n",
      "note_on channel=0 note=63 velocity=100 time=0\n",
      "note_off channel=0 note=63 velocity=90 time=96\n",
      "note_on channel=0 note=60 velocity=100 time=0\n",
      "note_on channel=0 note=64 velocity=100 time=0\n",
      "note_off channel=0 note=60 velocity=90 time=96\n",
      "note_off channel=0 note=64 velocity=90 time=0\n",
      "note_on channel=0 note=63 velocity=100 time=0\n",
      "note_off channel=0 note=63 velocity=90 time=96\n",
      "note_on channel=0 note=62 velocity=100 time=0\n",
      "note_off channel=0 note=62 velocity=90 time=96\n",
      "note_on channel=0 note=61 velocity=100 time=0\n",
      "note_off channel=0 note=61 velocity=90 time=96\n",
      "note_on channel=0 note=60 velocity=100 time=0\n",
      "note_off channel=0 note=60 velocity=90 time=96\n",
      "note_on channel=0 note=61 velocity=100 time=0\n",
      "note_off channel=0 note=61 velocity=90 time=96\n",
      "note_on channel=0 note=62 velocity=100 time=0\n",
      "note_off channel=0 note=62 velocity=90 time=96\n",
      "note_on channel=0 note=63 velocity=100 time=0\n",
      "note_off channel=0 note=63 velocity=90 time=96\n",
      "note_on channel=0 note=60 velocity=100 time=0\n",
      "note_on channel=0 note=64 velocity=100 time=0\n",
      "note_off channel=0 note=60 velocity=90 time=96\n",
      "note_off channel=0 note=64 velocity=90 time=0\n",
      "note_on channel=0 note=63 velocity=100 time=0\n",
      "note_off channel=0 note=63 velocity=90 time=96\n",
      "note_on channel=0 note=62 velocity=100 time=0\n",
      "note_off channel=0 note=62 velocity=90 time=96\n",
      "note_on channel=0 note=61 velocity=100 time=0\n",
      "note_off channel=0 note=61 velocity=90 time=96\n",
      "note_on channel=0 note=62 velocity=100 time=0\n",
      "note_off channel=0 note=62 velocity=90 time=96\n",
      "note_on channel=0 note=61 velocity=100 time=0\n",
      "note_off channel=0 note=61 velocity=90 time=96\n",
      "note_on channel=0 note=60 velocity=100 time=0\n",
      "note_off channel=0 note=60 velocity=90 time=96\n",
      "note_on channel=0 note=59 velocity=100 time=0\n",
      "note_off channel=0 note=59 velocity=90 time=96\n",
      "note_on channel=0 note=60 velocity=100 time=0\n",
      "note_off channel=0 note=60 velocity=90 time=96\n",
      "note_on channel=0 note=61 velocity=100 time=0\n",
      "note_off channel=0 note=61 velocity=90 time=96\n",
      "note_on channel=0 note=62 velocity=100 time=0\n",
      "note_off channel=0 note=62 velocity=90 time=96\n",
      "note_on channel=0 note=63 velocity=100 time=0\n",
      "note_off channel=0 note=63 velocity=90 time=96\n",
      "note_on channel=0 note=64 velocity=100 time=0\n",
      "note_off channel=0 note=64 velocity=90 time=96\n",
      "note_on channel=0 note=65 velocity=100 time=0\n",
      "note_off channel=0 note=65 velocity=90 time=96\n",
      "note_on channel=0 note=64 velocity=100 time=0\n",
      "note_off channel=0 note=64 velocity=90 time=96\n",
      "note_on channel=0 note=63 velocity=100 time=0\n",
      "note_off channel=0 note=63 velocity=90 time=96\n",
      "note_on channel=0 note=64 velocity=100 time=0\n",
      "note_off channel=0 note=64 velocity=90 time=96\n",
      "note_on channel=0 note=63 velocity=100 time=0\n",
      "note_off channel=0 note=63 velocity=90 time=96\n",
      "note_on channel=0 note=62 velocity=100 time=0\n",
      "note_off channel=0 note=62 velocity=90 time=96\n",
      "note_on channel=0 note=61 velocity=100 time=0\n",
      "note_off channel=0 note=61 velocity=90 time=96\n",
      "note_on channel=0 note=62 velocity=100 time=0\n",
      "note_off channel=0 note=62 velocity=90 time=96\n",
      "note_on channel=0 note=61 velocity=100 time=0\n",
      "note_off channel=0 note=61 velocity=90 time=96\n",
      "note_on channel=0 note=60 velocity=100 time=0\n",
      "note_off channel=0 note=60 velocity=90 time=96\n",
      "note_on channel=0 note=59 velocity=100 time=0\n",
      "note_off channel=0 note=59 velocity=90 time=96\n",
      "note_on channel=0 note=60 velocity=100 time=0\n",
      "note_off channel=0 note=60 velocity=90 time=96\n",
      "note_on channel=0 note=61 velocity=100 time=0\n",
      "note_off channel=0 note=61 velocity=90 time=96\n",
      "note_on channel=0 note=62 velocity=100 time=0\n",
      "note_off channel=0 note=62 velocity=90 time=96\n",
      "note_on channel=0 note=63 velocity=100 time=0\n",
      "note_off channel=0 note=63 velocity=90 time=96\n",
      "note_on channel=0 note=64 velocity=100 time=0\n",
      "note_off channel=0 note=64 velocity=90 time=96\n",
      "note_on channel=0 note=66 velocity=100 time=0\n",
      "note_off channel=0 note=66 velocity=90 time=96\n",
      "note_on channel=0 note=67 velocity=100 time=0\n",
      "note_off channel=0 note=67 velocity=90 time=96\n",
      "note_on channel=0 note=68 velocity=100 time=0\n",
      "note_off channel=0 note=68 velocity=90 time=96\n",
      "note_on channel=0 note=69 velocity=100 time=0\n",
      "note_off channel=0 note=69 velocity=90 time=96\n",
      "note_on channel=0 note=68 velocity=100 time=0\n",
      "note_off channel=0 note=68 velocity=90 time=96\n",
      "note_on channel=0 note=67 velocity=100 time=0\n",
      "note_off channel=0 note=67 velocity=90 time=96\n",
      "note_on channel=0 note=66 velocity=100 time=0\n",
      "note_off channel=0 note=66 velocity=90 time=96\n",
      "note_on channel=0 note=65 velocity=100 time=0\n",
      "note_off channel=0 note=65 velocity=90 time=96\n",
      "note_on channel=0 note=70 velocity=100 time=0\n",
      "note_off channel=0 note=70 velocity=90 time=96\n",
      "note_on channel=0 note=69 velocity=100 time=0\n",
      "note_off channel=0 note=69 velocity=90 time=96\n",
      "note_on channel=0 note=68 velocity=100 time=0\n",
      "note_off channel=0 note=68 velocity=90 time=96\n",
      "note_on channel=0 note=69 velocity=100 time=0\n",
      "note_off channel=0 note=69 velocity=90 time=96\n",
      "note_on channel=0 note=68 velocity=100 time=0\n",
      "note_off channel=0 note=68 velocity=90 time=96\n",
      "note_on channel=0 note=67 velocity=100 time=0\n",
      "note_off channel=0 note=67 velocity=90 time=96\n",
      "note_on channel=0 note=66 velocity=100 time=0\n",
      "note_off channel=0 note=66 velocity=90 time=96\n",
      "note_on channel=0 note=65 velocity=100 time=0\n",
      "note_off channel=0 note=65 velocity=90 time=96\n",
      "note_on channel=0 note=66 velocity=100 time=0\n",
      "note_off channel=0 note=66 velocity=90 time=96\n",
      "note_on channel=0 note=67 velocity=100 time=0\n",
      "note_off channel=0 note=67 velocity=90 time=96\n",
      "note_on channel=0 note=68 velocity=100 time=0\n",
      "note_off channel=0 note=68 velocity=90 time=96\n",
      "note_on channel=0 note=69 velocity=100 time=0\n",
      "note_off channel=0 note=69 velocity=90 time=96\n",
      "note_on channel=0 note=68 velocity=100 time=0\n",
      "note_off channel=0 note=68 velocity=90 time=96\n",
      "note_on channel=0 note=67 velocity=100 time=0\n",
      "note_off channel=0 note=67 velocity=90 time=96\n",
      "note_on channel=0 note=66 velocity=100 time=0\n",
      "note_off channel=0 note=66 velocity=90 time=96\n",
      "note_on channel=0 note=65 velocity=100 time=0\n",
      "note_off channel=0 note=65 velocity=90 time=96\n",
      "note_on channel=0 note=70 velocity=100 time=0\n",
      "note_off channel=0 note=70 velocity=90 time=96\n",
      "note_on channel=0 note=69 velocity=100 time=0\n",
      "note_off channel=0 note=69 velocity=90 time=96\n",
      "note_on channel=0 note=68 velocity=100 time=0\n",
      "note_off channel=0 note=68 velocity=90 time=96\n",
      "note_on channel=0 note=69 velocity=100 time=0\n",
      "note_off channel=0 note=69 velocity=90 time=96\n",
      "note_on channel=0 note=68 velocity=100 time=0\n",
      "note_off channel=0 note=68 velocity=90 time=96\n",
      "note_on channel=0 note=67 velocity=100 time=0\n",
      "note_off channel=0 note=67 velocity=90 time=96\n",
      "note_on channel=0 note=66 velocity=100 time=0\n",
      "note_off channel=0 note=66 velocity=90 time=96\n",
      "note_on channel=0 note=65 velocity=100 time=0\n",
      "note_off channel=0 note=65 velocity=90 time=96\n",
      "note_on channel=0 note=66 velocity=100 time=0\n",
      "note_off channel=0 note=66 velocity=90 time=96\n",
      "note_on channel=0 note=67 velocity=100 time=0\n",
      "note_off channel=0 note=67 velocity=90 time=96\n",
      "note_on channel=0 note=68 velocity=100 time=0\n",
      "note_off channel=0 note=68 velocity=90 time=96\n",
      "note_on channel=0 note=69 velocity=100 time=0\n",
      "note_off channel=0 note=69 velocity=90 time=96\n",
      "note_on channel=0 note=68 velocity=100 time=0\n",
      "note_off channel=0 note=68 velocity=90 time=96\n",
      "note_on channel=0 note=67 velocity=100 time=0\n",
      "note_off channel=0 note=67 velocity=90 time=96\n",
      "note_on channel=0 note=66 velocity=100 time=0\n",
      "note_off channel=0 note=66 velocity=90 time=96\n",
      "note_on channel=0 note=67 velocity=100 time=0\n",
      "note_off channel=0 note=67 velocity=90 time=96\n",
      "note_on channel=0 note=66 velocity=100 time=0\n",
      "note_off channel=0 note=66 velocity=90 time=96\n",
      "note_on channel=0 note=65 velocity=100 time=0\n",
      "note_off channel=0 note=65 velocity=90 time=96\n",
      "note_on channel=0 note=64 velocity=100 time=0\n",
      "note_off channel=0 note=64 velocity=90 time=96\n",
      "note_on channel=0 note=65 velocity=100 time=0\n",
      "note_off channel=0 note=65 velocity=90 time=96\n",
      "note_on channel=0 note=66 velocity=100 time=0\n",
      "note_off channel=0 note=66 velocity=90 time=96\n",
      "note_on channel=0 note=67 velocity=100 time=0\n",
      "note_off channel=0 note=67 velocity=90 time=96\n",
      "note_on channel=0 note=68 velocity=100 time=0\n",
      "note_off channel=0 note=68 velocity=90 time=96\n",
      "note_on channel=0 note=69 velocity=100 time=0\n",
      "note_off channel=0 note=69 velocity=90 time=96\n",
      "note_on channel=0 note=70 velocity=100 time=0\n",
      "note_off channel=0 note=70 velocity=90 time=96\n",
      "note_on channel=0 note=69 velocity=100 time=0\n",
      "note_off channel=0 note=69 velocity=90 time=96\n",
      "note_on channel=0 note=68 velocity=100 time=0\n",
      "note_off channel=0 note=68 velocity=90 time=96\n",
      "note_on channel=0 note=69 velocity=100 time=0\n",
      "note_off channel=0 note=69 velocity=90 time=96\n",
      "note_on channel=0 note=68 velocity=100 time=0\n",
      "note_off channel=0 note=68 velocity=90 time=96\n",
      "note_on channel=0 note=67 velocity=100 time=0\n",
      "note_off channel=0 note=67 velocity=90 time=96\n",
      "note_on channel=0 note=66 velocity=100 time=0\n",
      "note_off channel=0 note=66 velocity=90 time=96\n",
      "note_on channel=0 note=67 velocity=100 time=0\n",
      "note_off channel=0 note=67 velocity=90 time=96\n",
      "note_on channel=0 note=66 velocity=100 time=0\n",
      "note_off channel=0 note=66 velocity=90 time=96\n",
      "note_on channel=0 note=65 velocity=100 time=0\n",
      "note_off channel=0 note=65 velocity=90 time=96\n",
      "note_on channel=0 note=64 velocity=100 time=0\n",
      "note_off channel=0 note=64 velocity=90 time=96\n",
      "note_on channel=0 note=65 velocity=100 time=0\n",
      "note_off channel=0 note=65 velocity=90 time=96\n",
      "note_on channel=0 note=66 velocity=100 time=0\n",
      "note_off channel=0 note=66 velocity=90 time=96\n",
      "note_on channel=0 note=67 velocity=100 time=0\n",
      "note_off channel=0 note=67 velocity=90 time=96\n",
      "note_on channel=0 note=68 velocity=100 time=0\n",
      "note_off channel=0 note=68 velocity=90 time=96\n",
      "note_on channel=0 note=69 velocity=100 time=0\n",
      "note_off channel=0 note=69 velocity=90 time=96\n",
      "note_on channel=0 note=70 velocity=100 time=0\n",
      "note_off channel=0 note=70 velocity=90 time=96\n",
      "note_on channel=0 note=69 velocity=100 time=0\n",
      "note_off channel=0 note=69 velocity=90 time=96\n",
      "note_on channel=0 note=68 velocity=100 time=0\n",
      "note_off channel=0 note=68 velocity=90 time=96\n",
      "note_on channel=0 note=69 velocity=100 time=0\n",
      "note_off channel=0 note=69 velocity=90 time=192\n",
      "note_on channel=0 note=57 velocity=100 time=0\n",
      "note_off channel=0 note=57 velocity=90 time=96\n",
      "note_on channel=0 note=57 velocity=100 time=0\n",
      "note_off channel=0 note=57 velocity=90 time=96\n",
      "note_on channel=0 note=57 velocity=100 time=0\n",
      "note_off channel=0 note=57 velocity=90 time=96\n",
      "note_on channel=0 note=57 velocity=100 time=0\n",
      "note_off channel=0 note=57 velocity=90 time=96\n",
      "note_on channel=0 note=57 velocity=100 time=0\n",
      "note_off channel=0 note=57 velocity=90 time=96\n",
      "note_on channel=0 note=57 velocity=100 time=0\n",
      "note_off channel=0 note=57 velocity=90 time=96\n",
      "note_on channel=0 note=56 velocity=100 time=0\n",
      "note_on channel=0 note=58 velocity=100 time=0\n",
      "note_off channel=0 note=56 velocity=90 time=96\n",
      "note_off channel=0 note=58 velocity=90 time=0\n",
      "note_on channel=0 note=56 velocity=100 time=0\n",
      "note_on channel=0 note=58 velocity=100 time=0\n",
      "note_off channel=0 note=56 velocity=90 time=96\n",
      "note_off channel=0 note=58 velocity=90 time=0\n",
      "note_on channel=0 note=56 velocity=100 time=0\n",
      "note_on channel=0 note=58 velocity=100 time=0\n",
      "note_off channel=0 note=56 velocity=90 time=96\n",
      "note_off channel=0 note=58 velocity=90 time=0\n",
      "note_on channel=0 note=56 velocity=100 time=0\n",
      "note_on channel=0 note=58 velocity=100 time=0\n",
      "note_off channel=0 note=56 velocity=90 time=96\n",
      "note_off channel=0 note=58 velocity=90 time=0\n",
      "note_on channel=0 note=56 velocity=100 time=0\n",
      "note_on channel=0 note=58 velocity=100 time=0\n",
      "note_off channel=0 note=56 velocity=90 time=96\n",
      "note_off channel=0 note=58 velocity=90 time=0\n",
      "note_on channel=0 note=56 velocity=100 time=0\n",
      "note_on channel=0 note=58 velocity=100 time=0\n",
      "note_off channel=0 note=56 velocity=90 time=96\n",
      "note_off channel=0 note=58 velocity=90 time=0\n",
      "note_on channel=0 note=56 velocity=100 time=0\n",
      "note_on channel=0 note=58 velocity=100 time=0\n",
      "note_off channel=0 note=56 velocity=90 time=96\n",
      "note_off channel=0 note=58 velocity=90 time=0\n",
      "note_on channel=0 note=58 velocity=100 time=0\n",
      "note_on channel=0 note=56 velocity=100 time=0\n",
      "note_off channel=0 note=58 velocity=90 time=96\n",
      "note_off channel=0 note=56 velocity=90 time=0\n",
      "note_on channel=0 note=57 velocity=100 time=0\n",
      "note_off channel=0 note=57 velocity=90 time=96\n",
      "note_on channel=0 note=57 velocity=100 time=0\n",
      "note_off channel=0 note=57 velocity=90 time=96\n",
      "note_on channel=0 note=57 velocity=100 time=0\n",
      "note_off channel=0 note=57 velocity=90 time=96\n",
      "note_on channel=0 note=57 velocity=100 time=0\n",
      "note_off channel=0 note=57 velocity=90 time=96\n",
      "note_on channel=0 note=57 velocity=100 time=0\n",
      "note_off channel=0 note=57 velocity=90 time=96\n",
      "note_on channel=0 note=57 velocity=100 time=0\n",
      "note_off channel=0 note=57 velocity=90 time=96\n",
      "note_on channel=0 note=57 velocity=100 time=0\n",
      "note_off channel=0 note=57 velocity=90 time=96\n",
      "note_on channel=0 note=57 velocity=100 time=0\n",
      "note_off channel=0 note=57 velocity=90 time=96\n",
      "note_on channel=0 note=56 velocity=100 time=0\n",
      "note_on channel=0 note=58 velocity=100 time=0\n",
      "note_off channel=0 note=56 velocity=90 time=96\n",
      "note_off channel=0 note=58 velocity=90 time=0\n",
      "note_on channel=0 note=56 velocity=100 time=0\n",
      "note_on channel=0 note=58 velocity=100 time=0\n",
      "note_off channel=0 note=56 velocity=90 time=96\n",
      "note_off channel=0 note=58 velocity=90 time=0\n",
      "note_on channel=0 note=56 velocity=100 time=0\n",
      "note_on channel=0 note=58 velocity=100 time=0\n",
      "note_off channel=0 note=56 velocity=90 time=96\n",
      "note_off channel=0 note=58 velocity=90 time=0\n",
      "note_on channel=0 note=56 velocity=100 time=0\n",
      "note_on channel=0 note=58 velocity=100 time=0\n",
      "note_off channel=0 note=56 velocity=90 time=96\n",
      "note_off channel=0 note=58 velocity=90 time=0\n",
      "note_on channel=0 note=56 velocity=100 time=0\n",
      "note_on channel=0 note=58 velocity=100 time=0\n",
      "note_off channel=0 note=56 velocity=90 time=96\n",
      "note_off channel=0 note=58 velocity=90 time=0\n",
      "note_on channel=0 note=56 velocity=100 time=0\n",
      "note_on channel=0 note=58 velocity=100 time=0\n",
      "note_off channel=0 note=56 velocity=90 time=96\n",
      "note_off channel=0 note=58 velocity=90 time=0\n",
      "note_on channel=0 note=56 velocity=100 time=0\n",
      "note_on channel=0 note=58 velocity=100 time=0\n",
      "note_off channel=0 note=56 velocity=90 time=96\n",
      "note_off channel=0 note=58 velocity=90 time=0\n",
      "note_on channel=0 note=58 velocity=100 time=0\n",
      "note_on channel=0 note=56 velocity=100 time=0\n",
      "note_off channel=0 note=58 velocity=90 time=96\n",
      "note_off channel=0 note=56 velocity=90 time=0\n",
      "note_on channel=0 note=57 velocity=100 time=0\n",
      "note_off channel=0 note=57 velocity=90 time=96\n",
      "note_on channel=0 note=57 velocity=100 time=0\n",
      "note_off channel=0 note=57 velocity=90 time=96\n",
      "note_on channel=0 note=57 velocity=100 time=0\n",
      "note_off channel=0 note=57 velocity=90 time=96\n",
      "note_on channel=0 note=57 velocity=100 time=0\n",
      "note_off channel=0 note=57 velocity=90 time=96\n",
      "note_on channel=0 note=56 velocity=100 time=0\n",
      "note_on channel=0 note=58 velocity=100 time=0\n",
      "note_off channel=0 note=56 velocity=90 time=96\n",
      "note_off channel=0 note=58 velocity=90 time=0\n",
      "note_on channel=0 note=56 velocity=100 time=0\n",
      "note_on channel=0 note=58 velocity=100 time=0\n",
      "note_off channel=0 note=56 velocity=90 time=96\n",
      "note_off channel=0 note=58 velocity=90 time=0\n",
      "note_on channel=0 note=56 velocity=100 time=0\n",
      "note_on channel=0 note=58 velocity=100 time=0\n",
      "note_off channel=0 note=56 velocity=90 time=96\n",
      "note_off channel=0 note=58 velocity=90 time=0\n",
      "note_on channel=0 note=58 velocity=100 time=0\n",
      "note_on channel=0 note=56 velocity=100 time=0\n",
      "note_off channel=0 note=58 velocity=90 time=96\n",
      "note_off channel=0 note=56 velocity=90 time=0\n",
      "note_on channel=0 note=57 velocity=100 time=0\n",
      "note_off channel=0 note=57 velocity=90 time=96\n",
      "note_on channel=0 note=57 velocity=100 time=0\n",
      "note_off channel=0 note=57 velocity=90 time=96\n",
      "note_on channel=0 note=56 velocity=100 time=0\n",
      "note_off channel=0 note=56 velocity=90 time=96\n",
      "note_on channel=0 note=58 velocity=100 time=0\n",
      "note_off channel=0 note=58 velocity=90 time=96\n",
      "note_on channel=0 note=55 velocity=100 time=0\n",
      "note_off channel=0 note=55 velocity=90 time=96\n",
      "note_on channel=0 note=59 velocity=100 time=0\n",
      "note_off channel=0 note=59 velocity=90 time=96\n",
      "note_on channel=0 note=54 velocity=100 time=0\n",
      "note_off channel=0 note=54 velocity=90 time=96\n",
      "note_on channel=0 note=60 velocity=100 time=0\n",
      "note_off channel=0 note=60 velocity=90 time=96\n",
      "note_on channel=0 note=57 velocity=100 time=0\n",
      "note_on channel=0 note=61 velocity=100 time=0\n",
      "note_off channel=0 note=57 velocity=90 time=96\n",
      "note_off channel=0 note=61 velocity=90 time=0\n",
      "note_on channel=0 note=60 velocity=100 time=0\n",
      "note_off channel=0 note=60 velocity=90 time=96\n",
      "note_on channel=0 note=59 velocity=100 time=0\n",
      "note_off channel=0 note=59 velocity=90 time=96\n",
      "note_on channel=0 note=58 velocity=100 time=0\n",
      "note_off channel=0 note=58 velocity=90 time=96\n",
      "note_on channel=0 note=57 velocity=100 time=0\n",
      "note_off channel=0 note=57 velocity=90 time=96\n",
      "note_on channel=0 note=58 velocity=100 time=0\n",
      "note_off channel=0 note=58 velocity=90 time=96\n",
      "note_on channel=0 note=59 velocity=100 time=0\n",
      "note_off channel=0 note=59 velocity=90 time=96\n",
      "note_on channel=0 note=60 velocity=100 time=0\n",
      "note_off channel=0 note=60 velocity=90 time=96\n",
      "note_on channel=0 note=57 velocity=100 time=0\n",
      "note_on channel=0 note=61 velocity=100 time=0\n",
      "note_off channel=0 note=57 velocity=90 time=96\n",
      "note_off channel=0 note=61 velocity=90 time=0\n",
      "note_on channel=0 note=60 velocity=100 time=0\n",
      "note_off channel=0 note=60 velocity=90 time=96\n",
      "note_on channel=0 note=59 velocity=100 time=0\n",
      "note_off channel=0 note=59 velocity=90 time=96\n",
      "note_on channel=0 note=58 velocity=100 time=0\n",
      "note_off channel=0 note=58 velocity=90 time=96\n",
      "note_on channel=0 note=57 velocity=100 time=0\n",
      "note_off channel=0 note=57 velocity=90 time=96\n",
      "note_on channel=0 note=59 velocity=100 time=0\n",
      "note_off channel=0 note=59 velocity=90 time=96\n",
      "note_on channel=0 note=60 velocity=100 time=0\n",
      "note_off channel=0 note=60 velocity=90 time=96\n",
      "note_on channel=0 note=61 velocity=100 time=0\n",
      "note_off channel=0 note=61 velocity=90 time=96\n",
      "note_on channel=0 note=62 velocity=100 time=0\n",
      "note_off channel=0 note=62 velocity=90 time=192\n",
      "note_on channel=0 note=62 velocity=100 time=0\n",
      "note_off channel=0 note=62 velocity=90 time=96\n",
      "note_on channel=0 note=62 velocity=100 time=0\n",
      "note_off channel=0 note=62 velocity=90 time=96\n",
      "note_on channel=0 note=62 velocity=100 time=0\n",
      "note_off channel=0 note=62 velocity=90 time=96\n",
      "note_on channel=0 note=62 velocity=100 time=0\n",
      "note_off channel=0 note=62 velocity=90 time=96\n",
      "note_on channel=0 note=62 velocity=100 time=0\n",
      "note_off channel=0 note=62 velocity=90 time=96\n",
      "note_on channel=0 note=62 velocity=100 time=0\n",
      "note_off channel=0 note=62 velocity=90 time=96\n",
      "note_on channel=0 note=61 velocity=100 time=0\n",
      "note_on channel=0 note=63 velocity=100 time=0\n",
      "note_off channel=0 note=61 velocity=90 time=96\n",
      "note_off channel=0 note=63 velocity=90 time=0\n",
      "note_on channel=0 note=61 velocity=100 time=0\n",
      "note_on channel=0 note=63 velocity=100 time=0\n",
      "note_off channel=0 note=61 velocity=90 time=96\n",
      "note_off channel=0 note=63 velocity=90 time=0\n",
      "note_on channel=0 note=61 velocity=100 time=0\n",
      "note_on channel=0 note=63 velocity=100 time=0\n",
      "note_off channel=0 note=61 velocity=90 time=96\n",
      "note_off channel=0 note=63 velocity=90 time=0\n",
      "note_on channel=0 note=61 velocity=100 time=0\n",
      "note_on channel=0 note=63 velocity=100 time=0\n",
      "note_off channel=0 note=61 velocity=90 time=96\n",
      "note_off channel=0 note=63 velocity=90 time=0\n",
      "note_on channel=0 note=61 velocity=100 time=0\n",
      "note_on channel=0 note=63 velocity=100 time=0\n",
      "note_off channel=0 note=61 velocity=90 time=96\n",
      "note_off channel=0 note=63 velocity=90 time=0\n",
      "note_on channel=0 note=61 velocity=100 time=0\n",
      "note_on channel=0 note=63 velocity=100 time=0\n",
      "note_off channel=0 note=61 velocity=90 time=96\n",
      "note_off channel=0 note=63 velocity=90 time=0\n",
      "note_on channel=0 note=61 velocity=100 time=0\n",
      "note_on channel=0 note=63 velocity=100 time=0\n",
      "note_off channel=0 note=61 velocity=90 time=96\n",
      "note_off channel=0 note=63 velocity=90 time=0\n",
      "note_on channel=0 note=63 velocity=100 time=0\n",
      "note_on channel=0 note=61 velocity=100 time=0\n",
      "note_off channel=0 note=63 velocity=90 time=96\n",
      "note_off channel=0 note=61 velocity=90 time=0\n",
      "note_on channel=0 note=62 velocity=100 time=0\n",
      "note_off channel=0 note=62 velocity=90 time=96\n",
      "note_on channel=0 note=62 velocity=100 time=0\n",
      "note_off channel=0 note=62 velocity=90 time=96\n",
      "note_on channel=0 note=62 velocity=100 time=0\n",
      "note_off channel=0 note=62 velocity=90 time=96\n",
      "note_on channel=0 note=62 velocity=100 time=0\n",
      "note_off channel=0 note=62 velocity=90 time=96\n",
      "note_on channel=0 note=62 velocity=100 time=0\n",
      "note_off channel=0 note=62 velocity=90 time=96\n",
      "note_on channel=0 note=62 velocity=100 time=0\n",
      "note_off channel=0 note=62 velocity=90 time=96\n",
      "note_on channel=0 note=62 velocity=100 time=0\n",
      "note_off channel=0 note=62 velocity=90 time=96\n",
      "note_on channel=0 note=62 velocity=100 time=0\n",
      "note_off channel=0 note=62 velocity=90 time=96\n",
      "note_on channel=0 note=61 velocity=100 time=0\n",
      "note_on channel=0 note=63 velocity=100 time=0\n",
      "note_off channel=0 note=61 velocity=90 time=96\n",
      "note_off channel=0 note=63 velocity=90 time=0\n",
      "note_on channel=0 note=61 velocity=100 time=0\n",
      "note_on channel=0 note=63 velocity=100 time=0\n",
      "note_off channel=0 note=61 velocity=90 time=96\n",
      "note_off channel=0 note=63 velocity=90 time=0\n",
      "note_on channel=0 note=61 velocity=100 time=0\n",
      "note_on channel=0 note=63 velocity=100 time=0\n",
      "note_off channel=0 note=61 velocity=90 time=96\n",
      "note_off channel=0 note=63 velocity=90 time=0\n",
      "note_on channel=0 note=61 velocity=100 time=0\n",
      "note_on channel=0 note=63 velocity=100 time=0\n",
      "note_off channel=0 note=61 velocity=90 time=96\n",
      "note_off channel=0 note=63 velocity=90 time=0\n",
      "note_on channel=0 note=61 velocity=100 time=0\n",
      "note_on channel=0 note=63 velocity=100 time=0\n",
      "note_off channel=0 note=61 velocity=90 time=96\n",
      "note_off channel=0 note=63 velocity=90 time=0\n",
      "note_on channel=0 note=61 velocity=100 time=0\n",
      "note_on channel=0 note=63 velocity=100 time=0\n",
      "note_off channel=0 note=61 velocity=90 time=96\n",
      "note_off channel=0 note=63 velocity=90 time=0\n",
      "note_on channel=0 note=61 velocity=100 time=0\n",
      "note_on channel=0 note=63 velocity=100 time=0\n",
      "note_off channel=0 note=61 velocity=90 time=96\n",
      "note_off channel=0 note=63 velocity=90 time=0\n",
      "note_on channel=0 note=63 velocity=100 time=0\n",
      "note_on channel=0 note=61 velocity=100 time=0\n",
      "note_off channel=0 note=63 velocity=90 time=96\n",
      "note_off channel=0 note=61 velocity=90 time=0\n",
      "note_on channel=0 note=62 velocity=100 time=0\n",
      "note_off channel=0 note=62 velocity=90 time=96\n",
      "note_on channel=0 note=62 velocity=100 time=0\n",
      "note_off channel=0 note=62 velocity=90 time=96\n",
      "note_on channel=0 note=62 velocity=100 time=0\n",
      "note_off channel=0 note=62 velocity=90 time=96\n",
      "note_on channel=0 note=62 velocity=100 time=0\n",
      "note_off channel=0 note=62 velocity=90 time=96\n",
      "note_on channel=0 note=61 velocity=100 time=0\n",
      "note_on channel=0 note=63 velocity=100 time=0\n",
      "note_off channel=0 note=61 velocity=90 time=96\n",
      "note_off channel=0 note=63 velocity=90 time=0\n",
      "note_on channel=0 note=61 velocity=100 time=0\n",
      "note_on channel=0 note=63 velocity=100 time=0\n",
      "note_off channel=0 note=61 velocity=90 time=96\n",
      "note_off channel=0 note=63 velocity=90 time=0\n",
      "note_on channel=0 note=61 velocity=100 time=0\n",
      "note_on channel=0 note=63 velocity=100 time=0\n",
      "note_off channel=0 note=61 velocity=90 time=96\n",
      "note_off channel=0 note=63 velocity=90 time=0\n",
      "note_on channel=0 note=63 velocity=100 time=0\n",
      "note_on channel=0 note=61 velocity=100 time=0\n",
      "note_off channel=0 note=63 velocity=90 time=96\n",
      "note_off channel=0 note=61 velocity=90 time=0\n",
      "note_on channel=0 note=62 velocity=100 time=0\n",
      "note_off channel=0 note=62 velocity=90 time=96\n",
      "note_on channel=0 note=62 velocity=100 time=0\n",
      "note_off channel=0 note=62 velocity=90 time=96\n",
      "note_on channel=0 note=61 velocity=100 time=0\n",
      "note_off channel=0 note=61 velocity=90 time=96\n",
      "note_on channel=0 note=63 velocity=100 time=0\n",
      "note_off channel=0 note=63 velocity=90 time=96\n",
      "note_on channel=0 note=60 velocity=100 time=0\n",
      "note_off channel=0 note=60 velocity=90 time=96\n",
      "note_on channel=0 note=64 velocity=100 time=0\n",
      "note_off channel=0 note=64 velocity=90 time=96\n",
      "note_on channel=0 note=59 velocity=100 time=0\n",
      "note_off channel=0 note=59 velocity=90 time=96\n",
      "note_on channel=0 note=65 velocity=100 time=0\n",
      "note_off channel=0 note=65 velocity=90 time=96\n",
      "note_on channel=0 note=62 velocity=100 time=0\n",
      "note_on channel=0 note=66 velocity=100 time=0\n",
      "note_off channel=0 note=62 velocity=90 time=96\n",
      "note_off channel=0 note=66 velocity=90 time=0\n",
      "note_on channel=0 note=65 velocity=100 time=0\n",
      "note_off channel=0 note=65 velocity=90 time=96\n",
      "note_on channel=0 note=64 velocity=100 time=0\n",
      "note_off channel=0 note=64 velocity=90 time=96\n",
      "note_on channel=0 note=63 velocity=100 time=0\n",
      "note_off channel=0 note=63 velocity=90 time=96\n",
      "note_on channel=0 note=62 velocity=100 time=0\n",
      "note_off channel=0 note=62 velocity=90 time=96\n",
      "note_on channel=0 note=63 velocity=100 time=0\n",
      "note_off channel=0 note=63 velocity=90 time=96\n",
      "note_on channel=0 note=64 velocity=100 time=0\n",
      "note_off channel=0 note=64 velocity=90 time=96\n",
      "note_on channel=0 note=65 velocity=100 time=0\n",
      "note_off channel=0 note=65 velocity=90 time=96\n",
      "note_on channel=0 note=62 velocity=100 time=0\n",
      "note_on channel=0 note=66 velocity=100 time=0\n",
      "note_off channel=0 note=62 velocity=90 time=96\n",
      "note_off channel=0 note=66 velocity=90 time=0\n",
      "note_on channel=0 note=65 velocity=100 time=0\n",
      "note_off channel=0 note=65 velocity=90 time=96\n",
      "note_on channel=0 note=64 velocity=100 time=0\n",
      "note_off channel=0 note=64 velocity=90 time=96\n",
      "note_on channel=0 note=63 velocity=100 time=0\n",
      "note_off channel=0 note=63 velocity=90 time=96\n",
      "note_on channel=0 note=62 velocity=100 time=0\n",
      "note_off channel=0 note=62 velocity=90 time=192\n",
      "note_on channel=0 note=74 velocity=100 time=192\n",
      "note_off channel=0 note=74 velocity=90 time=96\n",
      "note_on channel=0 note=73 velocity=100 time=0\n",
      "note_off channel=0 note=73 velocity=90 time=96\n",
      "note_on channel=0 note=72 velocity=100 time=0\n",
      "note_off channel=0 note=72 velocity=90 time=96\n",
      "note_on channel=0 note=71 velocity=100 time=0\n",
      "note_off channel=0 note=71 velocity=90 time=96\n",
      "note_on channel=0 note=70 velocity=100 time=0\n",
      "note_off channel=0 note=70 velocity=90 time=96\n",
      "note_on channel=0 note=75 velocity=100 time=0\n",
      "note_off channel=0 note=75 velocity=90 time=96\n",
      "note_on channel=0 note=74 velocity=100 time=0\n",
      "note_off channel=0 note=74 velocity=90 time=96\n",
      "note_on channel=0 note=73 velocity=100 time=0\n",
      "note_off channel=0 note=73 velocity=90 time=96\n",
      "note_on channel=0 note=74 velocity=100 time=0\n",
      "note_off channel=0 note=74 velocity=90 time=96\n",
      "note_on channel=0 note=73 velocity=100 time=0\n",
      "note_off channel=0 note=73 velocity=90 time=96\n",
      "note_on channel=0 note=72 velocity=100 time=0\n",
      "note_off channel=0 note=72 velocity=90 time=96\n",
      "note_on channel=0 note=71 velocity=100 time=0\n",
      "note_off channel=0 note=71 velocity=90 time=96\n",
      "note_on channel=0 note=70 velocity=100 time=0\n",
      "note_off channel=0 note=70 velocity=90 time=96\n",
      "note_on channel=0 note=71 velocity=100 time=0\n",
      "note_off channel=0 note=71 velocity=90 time=96\n",
      "note_on channel=0 note=72 velocity=100 time=0\n",
      "note_off channel=0 note=72 velocity=90 time=96\n",
      "note_on channel=0 note=73 velocity=100 time=0\n",
      "note_off channel=0 note=73 velocity=90 time=96\n",
      "note_on channel=0 note=74 velocity=100 time=0\n",
      "note_off channel=0 note=74 velocity=90 time=96\n",
      "note_on channel=0 note=73 velocity=100 time=0\n",
      "note_off channel=0 note=73 velocity=90 time=96\n",
      "note_on channel=0 note=72 velocity=100 time=0\n",
      "note_off channel=0 note=72 velocity=90 time=96\n",
      "note_on channel=0 note=71 velocity=100 time=0\n",
      "note_off channel=0 note=71 velocity=90 time=96\n",
      "note_on channel=0 note=72 velocity=100 time=0\n",
      "note_off channel=0 note=72 velocity=90 time=96\n",
      "note_on channel=0 note=71 velocity=100 time=0\n",
      "note_off channel=0 note=71 velocity=90 time=96\n",
      "note_on channel=0 note=70 velocity=100 time=0\n",
      "note_off channel=0 note=70 velocity=90 time=96\n",
      "note_on channel=0 note=69 velocity=100 time=0\n",
      "note_off channel=0 note=69 velocity=90 time=96\n",
      "note_on channel=0 note=70 velocity=100 time=0\n",
      "note_off channel=0 note=70 velocity=90 time=96\n",
      "note_on channel=0 note=71 velocity=100 time=0\n",
      "note_off channel=0 note=71 velocity=90 time=96\n",
      "note_on channel=0 note=72 velocity=100 time=0\n",
      "note_off channel=0 note=72 velocity=90 time=96\n",
      "note_on channel=0 note=73 velocity=100 time=0\n",
      "note_off channel=0 note=73 velocity=90 time=96\n",
      "note_on channel=0 note=72 velocity=100 time=0\n",
      "note_off channel=0 note=72 velocity=90 time=96\n",
      "note_on channel=0 note=73 velocity=100 time=0\n",
      "note_off channel=0 note=73 velocity=90 time=96\n",
      "note_on channel=0 note=74 velocity=100 time=0\n",
      "note_off channel=0 note=74 velocity=90 time=96\n",
      "note_on channel=0 note=75 velocity=100 time=0\n",
      "note_off channel=0 note=75 velocity=90 time=96\n",
      "note_on channel=0 note=76 velocity=100 time=0\n",
      "note_off channel=0 note=76 velocity=90 time=96\n",
      "note_on channel=0 note=75 velocity=100 time=0\n",
      "note_off channel=0 note=75 velocity=90 time=96\n",
      "note_on channel=0 note=74 velocity=100 time=0\n",
      "note_off channel=0 note=74 velocity=90 time=96\n",
      "note_on channel=0 note=73 velocity=100 time=0\n",
      "note_off channel=0 note=73 velocity=90 time=96\n",
      "note_on channel=0 note=74 velocity=100 time=0\n",
      "note_off channel=0 note=74 velocity=90 time=96\n",
      "note_on channel=0 note=73 velocity=100 time=0\n",
      "note_off channel=0 note=73 velocity=90 time=96\n",
      "note_on channel=0 note=72 velocity=100 time=0\n",
      "note_off channel=0 note=72 velocity=90 time=96\n",
      "note_on channel=0 note=71 velocity=100 time=0\n",
      "note_off channel=0 note=71 velocity=90 time=96\n",
      "note_on channel=0 note=72 velocity=100 time=0\n",
      "note_off channel=0 note=72 velocity=90 time=96\n",
      "note_on channel=0 note=71 velocity=100 time=0\n",
      "note_off channel=0 note=71 velocity=90 time=96\n",
      "note_on channel=0 note=70 velocity=100 time=0\n",
      "note_off channel=0 note=70 velocity=90 time=96\n",
      "note_on channel=0 note=69 velocity=100 time=0\n",
      "note_off channel=0 note=69 velocity=90 time=96\n",
      "note_on channel=0 note=68 velocity=100 time=0\n",
      "note_off channel=0 note=68 velocity=90 time=96\n",
      "note_on channel=0 note=67 velocity=100 time=0\n",
      "note_off channel=0 note=67 velocity=90 time=96\n",
      "note_on channel=0 note=66 velocity=100 time=0\n",
      "note_off channel=0 note=66 velocity=90 time=96\n",
      "note_on channel=0 note=65 velocity=100 time=0\n",
      "note_off channel=0 note=65 velocity=90 time=96\n",
      "note_on channel=0 note=64 velocity=100 time=0\n",
      "note_off channel=0 note=64 velocity=90 time=96\n",
      "note_on channel=0 note=65 velocity=100 time=0\n",
      "note_off channel=0 note=65 velocity=90 time=96\n",
      "note_on channel=0 note=64 velocity=100 time=0\n",
      "note_off channel=0 note=64 velocity=90 time=96\n",
      "note_on channel=0 note=63 velocity=100 time=0\n",
      "note_off channel=0 note=63 velocity=90 time=96\n",
      "note_on channel=0 note=64 velocity=100 time=0\n",
      "note_off channel=0 note=64 velocity=90 time=96\n",
      "note_on channel=0 note=65 velocity=100 time=0\n",
      "note_off channel=0 note=65 velocity=90 time=96\n",
      "note_on channel=0 note=64 velocity=100 time=0\n",
      "note_off channel=0 note=64 velocity=90 time=96\n",
      "note_on channel=0 note=63 velocity=100 time=0\n",
      "note_off channel=0 note=63 velocity=90 time=96\n",
      "note_on channel=0 note=64 velocity=100 time=0\n",
      "note_off channel=0 note=64 velocity=90 time=96\n",
      "note_on channel=0 note=65 velocity=100 time=0\n",
      "note_off channel=0 note=65 velocity=90 time=96\n",
      "note_on channel=0 note=64 velocity=100 time=0\n",
      "note_off channel=0 note=64 velocity=90 time=96\n",
      "note_on channel=0 note=63 velocity=100 time=0\n",
      "note_off channel=0 note=63 velocity=90 time=96\n",
      "note_on channel=0 note=64 velocity=100 time=0\n",
      "note_off channel=0 note=64 velocity=90 time=96\n",
      "note_on channel=0 note=65 velocity=100 time=0\n",
      "note_off channel=0 note=65 velocity=90 time=96\n",
      "note_on channel=0 note=64 velocity=100 time=0\n",
      "note_off channel=0 note=64 velocity=90 time=96\n",
      "note_on channel=0 note=63 velocity=100 time=0\n",
      "note_off channel=0 note=63 velocity=90 time=96\n",
      "note_on channel=0 note=64 velocity=100 time=0\n",
      "note_off channel=0 note=64 velocity=90 time=96\n",
      "note_on channel=0 note=65 velocity=100 time=0\n",
      "note_off channel=0 note=65 velocity=90 time=96\n",
      "note_on channel=0 note=64 velocity=100 time=0\n",
      "note_off channel=0 note=64 velocity=90 time=96\n",
      "note_on channel=0 note=63 velocity=100 time=0\n",
      "note_off channel=0 note=63 velocity=90 time=96\n",
      "note_on channel=0 note=64 velocity=100 time=0\n",
      "note_off channel=0 note=64 velocity=90 time=96\n",
      "note_on channel=0 note=65 velocity=100 time=0\n",
      "note_off channel=0 note=65 velocity=90 time=96\n",
      "note_on channel=0 note=64 velocity=100 time=0\n",
      "note_off channel=0 note=64 velocity=90 time=96\n",
      "note_on channel=0 note=63 velocity=100 time=0\n",
      "note_off channel=0 note=63 velocity=90 time=96\n",
      "note_on channel=0 note=64 velocity=100 time=0\n",
      "note_off channel=0 note=64 velocity=90 time=96\n",
      "note_on channel=0 note=65 velocity=100 time=0\n",
      "note_off channel=0 note=65 velocity=90 time=96\n",
      "note_on channel=0 note=64 velocity=100 time=0\n",
      "note_off channel=0 note=64 velocity=90 time=96\n",
      "note_on channel=0 note=63 velocity=100 time=0\n",
      "note_off channel=0 note=63 velocity=90 time=96\n",
      "note_on channel=0 note=64 velocity=100 time=0\n",
      "note_off channel=0 note=64 velocity=90 time=96\n",
      "note_on channel=0 note=65 velocity=100 time=0\n",
      "note_off channel=0 note=65 velocity=90 time=96\n",
      "note_on channel=0 note=64 velocity=100 time=0\n",
      "note_off channel=0 note=64 velocity=90 time=96\n",
      "note_on channel=0 note=63 velocity=100 time=0\n",
      "note_off channel=0 note=63 velocity=90 time=96\n",
      "note_on channel=0 note=64 velocity=100 time=0\n",
      "note_off channel=0 note=64 velocity=90 time=96\n",
      "note_on channel=0 note=63 velocity=100 time=0\n",
      "note_off channel=0 note=63 velocity=90 time=96\n",
      "note_on channel=0 note=62 velocity=100 time=0\n",
      "note_off channel=0 note=62 velocity=90 time=96\n",
      "note_on channel=0 note=61 velocity=100 time=0\n",
      "note_off channel=0 note=61 velocity=90 time=96\n",
      "note_on channel=0 note=62 velocity=100 time=0\n",
      "note_off channel=0 note=62 velocity=90 time=96\n",
      "note_on channel=0 note=61 velocity=100 time=0\n",
      "note_off channel=0 note=61 velocity=90 time=96\n",
      "note_on channel=0 note=60 velocity=100 time=0\n",
      "note_off channel=0 note=60 velocity=90 time=96\n",
      "note_on channel=0 note=59 velocity=100 time=0\n",
      "note_off channel=0 note=59 velocity=90 time=96\n",
      "note_on channel=0 note=76 velocity=100 time=1152\n",
      "note_off channel=0 note=76 velocity=90 time=192\n",
      "note_on channel=0 note=72 velocity=100 time=0\n",
      "note_off channel=0 note=72 velocity=90 time=192\n",
      "note_on channel=0 note=69 velocity=100 time=0\n",
      "note_off channel=0 note=69 velocity=90 time=192\n",
      "note_on channel=0 note=65 velocity=100 time=0\n",
      "note_off channel=0 note=65 velocity=90 time=192\n",
      "note_on channel=0 note=69 velocity=100 time=0\n",
      "note_off channel=0 note=69 velocity=90 time=192\n",
      "note_on channel=0 note=72 velocity=100 time=0\n",
      "note_off channel=0 note=72 velocity=90 time=192\n",
      "note_on channel=0 note=76 velocity=100 time=0\n",
      "note_off channel=0 note=76 velocity=90 time=384\n",
      "note_on channel=0 note=88 velocity=100 time=0\n",
      "note_off channel=0 note=88 velocity=90 time=192\n",
      "note_on channel=0 note=84 velocity=100 time=0\n",
      "note_off channel=0 note=84 velocity=90 time=192\n",
      "note_on channel=0 note=81 velocity=100 time=0\n",
      "note_off channel=0 note=81 velocity=90 time=192\n",
      "note_on channel=0 note=77 velocity=100 time=0\n",
      "note_off channel=0 note=77 velocity=90 time=192\n",
      "note_on channel=0 note=81 velocity=100 time=0\n",
      "note_off channel=0 note=81 velocity=90 time=192\n",
      "note_on channel=0 note=84 velocity=100 time=0\n",
      "note_off channel=0 note=84 velocity=90 time=192\n",
      "note_on channel=0 note=88 velocity=100 time=0\n",
      "note_off channel=0 note=88 velocity=90 time=192\n",
      "note_on channel=0 note=48 velocity=100 time=1440\n",
      "note_off channel=0 note=48 velocity=90 time=96\n",
      "note_on channel=0 note=49 velocity=100 time=0\n",
      "note_off channel=0 note=49 velocity=90 time=96\n",
      "note_on channel=0 note=50 velocity=100 time=0\n",
      "note_off channel=0 note=50 velocity=90 time=96\n",
      "note_on channel=0 note=52 velocity=100 time=0\n",
      "note_off channel=0 note=52 velocity=90 time=96\n",
      "note_on channel=0 note=53 velocity=100 time=0\n",
      "note_off channel=0 note=53 velocity=90 time=96\n",
      "note_on channel=0 note=53 velocity=100 time=0\n",
      "note_off channel=0 note=53 velocity=90 time=96\n",
      "note_on channel=0 note=54 velocity=100 time=0\n",
      "note_off channel=0 note=54 velocity=90 time=96\n",
      "note_on channel=0 note=76 velocity=100 time=0\n",
      "note_off channel=0 note=76 velocity=90 time=96\n",
      "note_on channel=0 note=77 velocity=100 time=0\n",
      "note_off channel=0 note=77 velocity=90 time=96\n",
      "note_on channel=0 note=76 velocity=100 time=0\n",
      "note_off channel=0 note=76 velocity=90 time=96\n",
      "note_on channel=0 note=75 velocity=100 time=0\n",
      "note_off channel=0 note=75 velocity=90 time=96\n",
      "note_on channel=0 note=76 velocity=100 time=0\n",
      "note_off channel=0 note=76 velocity=90 time=96\n",
      "note_on channel=0 note=77 velocity=100 time=0\n",
      "note_off channel=0 note=77 velocity=90 time=96\n",
      "note_on channel=0 note=76 velocity=100 time=0\n",
      "note_off channel=0 note=76 velocity=90 time=96\n",
      "note_on channel=0 note=75 velocity=100 time=0\n",
      "note_off channel=0 note=75 velocity=90 time=96\n",
      "note_on channel=0 note=76 velocity=100 time=0\n",
      "note_off channel=0 note=76 velocity=90 time=96\n",
      "note_on channel=0 note=75 velocity=100 time=0\n",
      "note_off channel=0 note=75 velocity=90 time=96\n",
      "note_on channel=0 note=74 velocity=100 time=0\n",
      "note_off channel=0 note=74 velocity=90 time=96\n",
      "note_on channel=0 note=73 velocity=100 time=0\n",
      "note_off channel=0 note=73 velocity=90 time=96\n",
      "note_on channel=0 note=72 velocity=100 time=0\n",
      "note_off channel=0 note=72 velocity=90 time=96\n",
      "note_on channel=0 note=77 velocity=100 time=0\n",
      "note_off channel=0 note=77 velocity=90 time=96\n",
      "note_on channel=0 note=76 velocity=100 time=0\n",
      "note_off channel=0 note=76 velocity=90 time=96\n",
      "note_on channel=0 note=75 velocity=100 time=0\n",
      "note_off channel=0 note=75 velocity=90 time=96\n",
      "note_on channel=0 note=76 velocity=100 time=0\n",
      "note_off channel=0 note=76 velocity=90 time=96\n",
      "note_on channel=0 note=75 velocity=100 time=0\n",
      "note_off channel=0 note=75 velocity=90 time=96\n",
      "note_on channel=0 note=74 velocity=100 time=0\n",
      "note_off channel=0 note=74 velocity=90 time=96\n",
      "note_on channel=0 note=73 velocity=100 time=0\n",
      "note_off channel=0 note=73 velocity=90 time=96\n",
      "note_on channel=0 note=72 velocity=100 time=0\n",
      "note_off channel=0 note=72 velocity=90 time=96\n",
      "note_on channel=0 note=73 velocity=100 time=0\n",
      "note_off channel=0 note=73 velocity=90 time=96\n",
      "note_on channel=0 note=74 velocity=100 time=0\n",
      "note_off channel=0 note=74 velocity=90 time=96\n",
      "note_on channel=0 note=75 velocity=100 time=0\n",
      "note_off channel=0 note=75 velocity=90 time=96\n",
      "note_on channel=0 note=76 velocity=100 time=0\n",
      "note_off channel=0 note=76 velocity=90 time=96\n",
      "note_on channel=0 note=75 velocity=100 time=0\n",
      "note_off channel=0 note=75 velocity=90 time=96\n",
      "note_on channel=0 note=74 velocity=100 time=0\n",
      "note_off channel=0 note=74 velocity=90 time=96\n",
      "note_on channel=0 note=73 velocity=100 time=0\n",
      "note_off channel=0 note=73 velocity=90 time=96\n",
      "note_on channel=0 note=72 velocity=100 time=0\n",
      "note_off channel=0 note=72 velocity=90 time=96\n",
      "note_on channel=0 note=77 velocity=100 time=0\n",
      "note_off channel=0 note=77 velocity=90 time=96\n",
      "note_on channel=0 note=76 velocity=100 time=0\n",
      "note_off channel=0 note=76 velocity=90 time=96\n",
      "note_on channel=0 note=75 velocity=100 time=0\n",
      "note_off channel=0 note=75 velocity=90 time=96\n",
      "note_on channel=0 note=76 velocity=100 time=0\n",
      "note_off channel=0 note=76 velocity=90 time=96\n",
      "note_on channel=0 note=75 velocity=100 time=0\n",
      "note_off channel=0 note=75 velocity=90 time=96\n",
      "note_on channel=0 note=74 velocity=100 time=0\n",
      "note_off channel=0 note=74 velocity=90 time=96\n",
      "note_on channel=0 note=73 velocity=100 time=0\n",
      "note_off channel=0 note=73 velocity=90 time=96\n",
      "note_on channel=0 note=72 velocity=100 time=0\n",
      "note_off channel=0 note=72 velocity=90 time=96\n",
      "note_on channel=0 note=73 velocity=100 time=0\n",
      "note_off channel=0 note=73 velocity=90 time=96\n",
      "note_on channel=0 note=74 velocity=100 time=0\n",
      "note_off channel=0 note=74 velocity=90 time=96\n",
      "note_on channel=0 note=75 velocity=100 time=0\n",
      "note_off channel=0 note=75 velocity=90 time=96\n",
      "note_on channel=0 note=76 velocity=100 time=0\n",
      "note_off channel=0 note=76 velocity=90 time=96\n",
      "note_on channel=0 note=75 velocity=100 time=0\n",
      "note_off channel=0 note=75 velocity=90 time=96\n",
      "note_on channel=0 note=74 velocity=100 time=0\n",
      "note_off channel=0 note=74 velocity=90 time=96\n",
      "note_on channel=0 note=73 velocity=100 time=0\n",
      "note_off channel=0 note=73 velocity=90 time=96\n",
      "note_on channel=0 note=74 velocity=100 time=0\n",
      "note_off channel=0 note=74 velocity=90 time=96\n",
      "note_on channel=0 note=73 velocity=100 time=0\n",
      "note_off channel=0 note=73 velocity=90 time=96\n",
      "note_on channel=0 note=72 velocity=100 time=0\n",
      "note_off channel=0 note=72 velocity=90 time=96\n",
      "note_on channel=0 note=71 velocity=100 time=0\n",
      "note_off channel=0 note=71 velocity=90 time=96\n",
      "note_on channel=0 note=72 velocity=100 time=0\n",
      "note_off channel=0 note=72 velocity=90 time=96\n",
      "note_on channel=0 note=73 velocity=100 time=0\n",
      "note_off channel=0 note=73 velocity=90 time=96\n",
      "note_on channel=0 note=74 velocity=100 time=0\n",
      "note_off channel=0 note=74 velocity=90 time=96\n",
      "note_on channel=0 note=75 velocity=100 time=0\n",
      "note_off channel=0 note=75 velocity=90 time=96\n",
      "note_on channel=0 note=76 velocity=100 time=0\n",
      "note_off channel=0 note=76 velocity=90 time=96\n",
      "note_on channel=0 note=77 velocity=100 time=0\n",
      "note_off channel=0 note=77 velocity=90 time=96\n",
      "note_on channel=0 note=76 velocity=100 time=0\n",
      "note_off channel=0 note=76 velocity=90 time=96\n",
      "note_on channel=0 note=75 velocity=100 time=0\n",
      "note_off channel=0 note=75 velocity=90 time=96\n",
      "note_on channel=0 note=76 velocity=100 time=0\n",
      "note_off channel=0 note=76 velocity=90 time=96\n",
      "note_on channel=0 note=75 velocity=100 time=0\n",
      "note_off channel=0 note=75 velocity=90 time=96\n",
      "note_on channel=0 note=74 velocity=100 time=0\n",
      "note_off channel=0 note=74 velocity=90 time=96\n",
      "note_on channel=0 note=73 velocity=100 time=0\n",
      "note_off channel=0 note=73 velocity=90 time=96\n",
      "note_on channel=0 note=74 velocity=100 time=0\n",
      "note_off channel=0 note=74 velocity=90 time=96\n",
      "note_on channel=0 note=73 velocity=100 time=0\n",
      "note_off channel=0 note=73 velocity=90 time=96\n",
      "note_on channel=0 note=72 velocity=100 time=0\n",
      "note_off channel=0 note=72 velocity=90 time=96\n",
      "note_on channel=0 note=71 velocity=100 time=0\n",
      "note_off channel=0 note=71 velocity=90 time=96\n",
      "note_on channel=0 note=72 velocity=100 time=0\n",
      "note_off channel=0 note=72 velocity=90 time=96\n",
      "note_on channel=0 note=73 velocity=100 time=0\n",
      "note_off channel=0 note=73 velocity=90 time=96\n",
      "note_on channel=0 note=74 velocity=100 time=0\n",
      "note_off channel=0 note=74 velocity=90 time=96\n",
      "note_on channel=0 note=75 velocity=100 time=0\n",
      "note_off channel=0 note=75 velocity=90 time=96\n",
      "note_on channel=0 note=76 velocity=100 time=0\n",
      "note_off channel=0 note=76 velocity=90 time=96\n",
      "note_on channel=0 note=78 velocity=100 time=0\n",
      "note_off channel=0 note=78 velocity=90 time=96\n",
      "note_on channel=0 note=79 velocity=100 time=0\n",
      "note_off channel=0 note=79 velocity=90 time=96\n",
      "note_on channel=0 note=80 velocity=100 time=0\n",
      "note_off channel=0 note=80 velocity=90 time=96\n",
      "note_on channel=0 note=81 velocity=100 time=0\n",
      "note_off channel=0 note=81 velocity=90 time=96\n",
      "note_on channel=0 note=80 velocity=100 time=0\n",
      "note_off channel=0 note=80 velocity=90 time=96\n",
      "note_on channel=0 note=79 velocity=100 time=0\n",
      "note_off channel=0 note=79 velocity=90 time=96\n",
      "note_on channel=0 note=78 velocity=100 time=0\n",
      "note_off channel=0 note=78 velocity=90 time=96\n",
      "note_on channel=0 note=77 velocity=100 time=0\n",
      "note_off channel=0 note=77 velocity=90 time=96\n",
      "note_on channel=0 note=82 velocity=100 time=0\n",
      "note_off channel=0 note=82 velocity=90 time=96\n",
      "note_on channel=0 note=81 velocity=100 time=0\n",
      "note_off channel=0 note=81 velocity=90 time=96\n",
      "note_on channel=0 note=80 velocity=100 time=0\n",
      "note_off channel=0 note=80 velocity=90 time=96\n",
      "note_on channel=0 note=81 velocity=100 time=0\n",
      "note_off channel=0 note=81 velocity=90 time=96\n",
      "note_on channel=0 note=80 velocity=100 time=0\n",
      "note_off channel=0 note=80 velocity=90 time=96\n",
      "note_on channel=0 note=79 velocity=100 time=0\n",
      "note_off channel=0 note=79 velocity=90 time=96\n",
      "note_on channel=0 note=78 velocity=100 time=0\n",
      "note_off channel=0 note=78 velocity=90 time=96\n",
      "note_on channel=0 note=77 velocity=100 time=0\n",
      "note_off channel=0 note=77 velocity=90 time=96\n",
      "note_on channel=0 note=78 velocity=100 time=0\n",
      "note_off channel=0 note=78 velocity=90 time=96\n",
      "note_on channel=0 note=79 velocity=100 time=0\n",
      "note_off channel=0 note=79 velocity=90 time=96\n",
      "note_on channel=0 note=80 velocity=100 time=0\n",
      "note_off channel=0 note=80 velocity=90 time=96\n",
      "note_on channel=0 note=81 velocity=100 time=0\n",
      "note_off channel=0 note=81 velocity=90 time=96\n",
      "note_on channel=0 note=80 velocity=100 time=0\n",
      "note_off channel=0 note=80 velocity=90 time=96\n",
      "note_on channel=0 note=79 velocity=100 time=0\n",
      "note_off channel=0 note=79 velocity=90 time=96\n",
      "note_on channel=0 note=78 velocity=100 time=0\n",
      "note_off channel=0 note=78 velocity=90 time=96\n",
      "note_on channel=0 note=77 velocity=100 time=0\n",
      "note_off channel=0 note=77 velocity=90 time=96\n",
      "note_on channel=0 note=82 velocity=100 time=0\n",
      "note_off channel=0 note=82 velocity=90 time=96\n",
      "note_on channel=0 note=81 velocity=100 time=0\n",
      "note_off channel=0 note=81 velocity=90 time=96\n",
      "note_on channel=0 note=80 velocity=100 time=0\n",
      "note_off channel=0 note=80 velocity=90 time=96\n",
      "note_on channel=0 note=81 velocity=100 time=0\n",
      "note_off channel=0 note=81 velocity=90 time=96\n",
      "note_on channel=0 note=80 velocity=100 time=0\n",
      "note_off channel=0 note=80 velocity=90 time=96\n",
      "note_on channel=0 note=79 velocity=100 time=0\n",
      "note_off channel=0 note=79 velocity=90 time=96\n",
      "note_on channel=0 note=78 velocity=100 time=0\n",
      "note_off channel=0 note=78 velocity=90 time=96\n",
      "note_on channel=0 note=77 velocity=100 time=0\n",
      "note_off channel=0 note=77 velocity=90 time=96\n",
      "note_on channel=0 note=78 velocity=100 time=0\n",
      "note_off channel=0 note=78 velocity=90 time=96\n",
      "note_on channel=0 note=79 velocity=100 time=0\n",
      "note_off channel=0 note=79 velocity=90 time=96\n",
      "note_on channel=0 note=80 velocity=100 time=0\n",
      "note_off channel=0 note=80 velocity=90 time=96\n",
      "note_on channel=0 note=81 velocity=100 time=0\n",
      "note_off channel=0 note=81 velocity=90 time=96\n",
      "note_on channel=0 note=80 velocity=100 time=0\n",
      "note_off channel=0 note=80 velocity=90 time=96\n",
      "note_on channel=0 note=79 velocity=100 time=0\n",
      "note_off channel=0 note=79 velocity=90 time=96\n",
      "note_on channel=0 note=78 velocity=100 time=0\n",
      "note_off channel=0 note=78 velocity=90 time=96\n",
      "note_on channel=0 note=79 velocity=100 time=0\n",
      "note_off channel=0 note=79 velocity=90 time=96\n",
      "note_on channel=0 note=78 velocity=100 time=0\n",
      "note_off channel=0 note=78 velocity=90 time=96\n",
      "note_on channel=0 note=77 velocity=100 time=0\n",
      "note_off channel=0 note=77 velocity=90 time=96\n",
      "note_on channel=0 note=76 velocity=100 time=0\n",
      "note_off channel=0 note=76 velocity=90 time=96\n",
      "note_on channel=0 note=77 velocity=100 time=0\n",
      "note_off channel=0 note=77 velocity=90 time=96\n",
      "note_on channel=0 note=78 velocity=100 time=0\n",
      "note_off channel=0 note=78 velocity=90 time=96\n",
      "note_on channel=0 note=79 velocity=100 time=0\n",
      "note_off channel=0 note=79 velocity=90 time=96\n",
      "note_on channel=0 note=80 velocity=100 time=0\n",
      "note_off channel=0 note=80 velocity=90 time=96\n",
      "note_on channel=0 note=81 velocity=100 time=0\n",
      "note_off channel=0 note=81 velocity=90 time=96\n",
      "note_on channel=0 note=82 velocity=100 time=0\n",
      "note_off channel=0 note=82 velocity=90 time=96\n",
      "note_on channel=0 note=81 velocity=100 time=0\n",
      "note_off channel=0 note=81 velocity=90 time=96\n",
      "note_on channel=0 note=80 velocity=100 time=0\n",
      "note_off channel=0 note=80 velocity=90 time=96\n",
      "note_on channel=0 note=81 velocity=100 time=0\n",
      "note_off channel=0 note=81 velocity=90 time=96\n",
      "note_on channel=0 note=80 velocity=100 time=0\n",
      "note_off channel=0 note=80 velocity=90 time=96\n",
      "note_on channel=0 note=79 velocity=100 time=0\n",
      "note_off channel=0 note=79 velocity=90 time=96\n",
      "note_on channel=0 note=78 velocity=100 time=0\n",
      "note_off channel=0 note=78 velocity=90 time=96\n",
      "note_on channel=0 note=77 velocity=100 time=0\n",
      "note_off channel=0 note=77 velocity=90 time=96\n",
      "note_on channel=0 note=78 velocity=100 time=0\n",
      "note_off channel=0 note=78 velocity=90 time=96\n",
      "note_on channel=0 note=79 velocity=100 time=0\n",
      "note_off channel=0 note=79 velocity=90 time=96\n",
      "note_on channel=0 note=80 velocity=100 time=0\n",
      "note_off channel=0 note=80 velocity=90 time=96\n",
      "note_on channel=0 note=81 velocity=100 time=0\n",
      "note_off channel=0 note=81 velocity=90 time=96\n",
      "note_on channel=0 note=83 velocity=100 time=0\n",
      "note_off channel=0 note=83 velocity=90 time=96\n",
      "note_on channel=0 note=84 velocity=100 time=0\n",
      "note_off channel=0 note=84 velocity=90 time=96\n",
      "note_on channel=0 note=86 velocity=100 time=0\n",
      "note_off channel=0 note=86 velocity=90 time=96\n",
      "note_on channel=0 note=88 velocity=100 time=0\n",
      "note_off channel=0 note=88 velocity=90 time=96\n",
      "note_on channel=0 note=89 velocity=100 time=0\n",
      "note_off channel=0 note=89 velocity=90 time=96\n",
      "note_on channel=0 note=88 velocity=100 time=0\n",
      "note_off channel=0 note=88 velocity=90 time=96\n",
      "note_on channel=0 note=87 velocity=100 time=0\n",
      "note_off channel=0 note=87 velocity=90 time=96\n",
      "note_on channel=0 note=88 velocity=100 time=0\n",
      "note_off channel=0 note=88 velocity=90 time=96\n",
      "note_on channel=0 note=87 velocity=100 time=0\n",
      "note_off channel=0 note=87 velocity=90 time=96\n",
      "note_on channel=0 note=86 velocity=100 time=0\n",
      "note_off channel=0 note=86 velocity=90 time=96\n",
      "note_on channel=0 note=85 velocity=100 time=0\n",
      "note_off channel=0 note=85 velocity=90 time=96\n",
      "note_on channel=0 note=84 velocity=100 time=0\n",
      "note_off channel=0 note=84 velocity=90 time=96\n",
      "note_on channel=0 note=89 velocity=100 time=0\n",
      "note_off channel=0 note=89 velocity=90 time=96\n",
      "note_on channel=0 note=88 velocity=100 time=0\n",
      "note_off channel=0 note=88 velocity=90 time=96\n",
      "note_on channel=0 note=87 velocity=100 time=0\n",
      "note_off channel=0 note=87 velocity=90 time=96\n",
      "note_on channel=0 note=88 velocity=100 time=0\n",
      "note_off channel=0 note=88 velocity=90 time=96\n",
      "note_on channel=0 note=87 velocity=100 time=0\n",
      "note_off channel=0 note=87 velocity=90 time=96\n",
      "note_on channel=0 note=86 velocity=100 time=0\n",
      "note_off channel=0 note=86 velocity=90 time=96\n",
      "note_on channel=0 note=85 velocity=100 time=0\n",
      "note_off channel=0 note=85 velocity=90 time=96\n",
      "note_on channel=0 note=84 velocity=100 time=0\n",
      "note_off channel=0 note=84 velocity=90 time=96\n",
      "note_on channel=0 note=85 velocity=100 time=0\n",
      "note_off channel=0 note=85 velocity=90 time=96\n",
      "note_on channel=0 note=86 velocity=100 time=0\n",
      "note_off channel=0 note=86 velocity=90 time=96\n",
      "note_on channel=0 note=87 velocity=100 time=0\n",
      "note_off channel=0 note=87 velocity=90 time=96\n",
      "note_on channel=0 note=88 velocity=100 time=0\n",
      "note_off channel=0 note=88 velocity=90 time=96\n",
      "note_on channel=0 note=87 velocity=100 time=0\n",
      "note_off channel=0 note=87 velocity=90 time=96\n",
      "note_on channel=0 note=86 velocity=100 time=0\n",
      "note_off channel=0 note=86 velocity=90 time=96\n",
      "note_on channel=0 note=85 velocity=100 time=0\n",
      "note_off channel=0 note=85 velocity=90 time=96\n",
      "note_on channel=0 note=84 velocity=100 time=0\n",
      "note_off channel=0 note=84 velocity=90 time=96\n",
      "note_on channel=0 note=89 velocity=100 time=0\n",
      "note_off channel=0 note=89 velocity=90 time=96\n",
      "note_on channel=0 note=88 velocity=100 time=0\n",
      "note_off channel=0 note=88 velocity=90 time=96\n",
      "note_on channel=0 note=87 velocity=100 time=0\n",
      "note_off channel=0 note=87 velocity=90 time=96\n",
      "note_on channel=0 note=88 velocity=100 time=0\n",
      "note_off channel=0 note=88 velocity=90 time=96\n",
      "note_on channel=0 note=87 velocity=100 time=0\n",
      "note_off channel=0 note=87 velocity=90 time=96\n",
      "note_on channel=0 note=86 velocity=100 time=0\n",
      "note_off channel=0 note=86 velocity=90 time=96\n",
      "note_on channel=0 note=85 velocity=100 time=0\n",
      "note_off channel=0 note=85 velocity=90 time=96\n",
      "note_on channel=0 note=84 velocity=100 time=0\n",
      "note_off channel=0 note=84 velocity=90 time=96\n",
      "note_on channel=0 note=85 velocity=100 time=0\n",
      "note_off channel=0 note=85 velocity=90 time=96\n",
      "note_on channel=0 note=86 velocity=100 time=0\n",
      "note_off channel=0 note=86 velocity=90 time=96\n",
      "note_on channel=0 note=87 velocity=100 time=0\n",
      "note_off channel=0 note=87 velocity=90 time=96\n",
      "note_on channel=0 note=88 velocity=100 time=0\n",
      "note_off channel=0 note=88 velocity=90 time=192\n",
      "note_on channel=0 note=68 velocity=100 time=0\n",
      "note_off channel=0 note=68 velocity=90 time=96\n",
      "note_on channel=0 note=69 velocity=100 time=0\n",
      "note_off channel=0 note=69 velocity=90 time=96\n",
      "note_on channel=0 note=70 velocity=100 time=0\n",
      "note_off channel=0 note=70 velocity=90 time=96\n",
      "note_on channel=0 note=71 velocity=100 time=0\n",
      "note_off channel=0 note=71 velocity=90 time=96\n",
      "note_on channel=0 note=72 velocity=100 time=0\n",
      "note_off channel=0 note=72 velocity=90 time=96\n",
      "note_on channel=0 note=73 velocity=100 time=0\n",
      "note_off channel=0 note=73 velocity=90 time=96\n",
      "note_on channel=0 note=74 velocity=100 time=0\n",
      "note_off channel=0 note=74 velocity=90 time=96\n",
      "note_on channel=0 note=73 velocity=100 time=0\n",
      "note_off channel=0 note=73 velocity=90 time=96\n",
      "note_on channel=0 note=72 velocity=100 time=0\n",
      "note_off channel=0 note=72 velocity=90 time=96\n",
      "note_on channel=0 note=71 velocity=100 time=0\n",
      "note_off channel=0 note=71 velocity=90 time=96\n",
      "note_on channel=0 note=72 velocity=100 time=0\n",
      "note_off channel=0 note=72 velocity=90 time=96\n",
      "note_on channel=0 note=71 velocity=100 time=0\n",
      "note_off channel=0 note=71 velocity=90 time=96\n",
      "note_on channel=0 note=70 velocity=100 time=0\n",
      "note_off channel=0 note=70 velocity=90 time=96\n",
      "note_on channel=0 note=69 velocity=100 time=0\n",
      "note_off channel=0 note=69 velocity=90 time=96\n",
      "note_on channel=0 note=68 velocity=100 time=0\n",
      "note_off channel=0 note=68 velocity=90 time=96\n",
      "note_on channel=0 note=69 velocity=100 time=0\n",
      "note_off channel=0 note=69 velocity=90 time=96\n",
      "note_on channel=0 note=70 velocity=100 time=0\n",
      "note_off channel=0 note=70 velocity=90 time=96\n",
      "note_on channel=0 note=71 velocity=100 time=0\n",
      "note_off channel=0 note=71 velocity=90 time=96\n",
      "note_on channel=0 note=72 velocity=100 time=0\n",
      "note_off channel=0 note=72 velocity=90 time=96\n",
      "note_on channel=0 note=73 velocity=100 time=0\n",
      "note_off channel=0 note=73 velocity=90 time=96\n",
      "note_on channel=0 note=74 velocity=100 time=0\n",
      "note_off channel=0 note=74 velocity=90 time=96\n",
      "note_on channel=0 note=75 velocity=100 time=0\n",
      "note_off channel=0 note=75 velocity=90 time=96\n",
      "note_on channel=0 note=76 velocity=100 time=0\n",
      "note_off channel=0 note=76 velocity=90 time=96\n",
      "note_on channel=0 note=77 velocity=100 time=0\n",
      "note_off channel=0 note=77 velocity=90 time=96\n",
      "note_on channel=0 note=76 velocity=100 time=0\n",
      "note_off channel=0 note=76 velocity=90 time=96\n",
      "note_on channel=0 note=75 velocity=100 time=0\n",
      "note_off channel=0 note=75 velocity=90 time=96\n",
      "note_on channel=0 note=76 velocity=100 time=0\n",
      "note_off channel=0 note=76 velocity=90 time=96\n",
      "note_on channel=0 note=77 velocity=100 time=0\n",
      "note_off channel=0 note=77 velocity=90 time=96\n",
      "note_on channel=0 note=76 velocity=100 time=0\n",
      "note_off channel=0 note=76 velocity=90 time=96\n",
      "note_on channel=0 note=75 velocity=100 time=0\n",
      "note_off channel=0 note=75 velocity=90 time=96\n",
      "note_on channel=0 note=76 velocity=100 time=0\n",
      "note_off channel=0 note=76 velocity=90 time=192\n",
      "note_on channel=0 note=80 velocity=100 time=0\n",
      "note_off channel=0 note=80 velocity=90 time=96\n",
      "note_on channel=0 note=81 velocity=100 time=0\n",
      "note_off channel=0 note=81 velocity=90 time=96\n",
      "note_on channel=0 note=82 velocity=100 time=0\n",
      "note_off channel=0 note=82 velocity=90 time=96\n",
      "note_on channel=0 note=83 velocity=100 time=0\n",
      "note_off channel=0 note=83 velocity=90 time=96\n",
      "note_on channel=0 note=84 velocity=100 time=0\n",
      "note_off channel=0 note=84 velocity=90 time=96\n",
      "note_on channel=0 note=85 velocity=100 time=0\n",
      "note_off channel=0 note=85 velocity=90 time=96\n",
      "note_on channel=0 note=86 velocity=100 time=0\n",
      "note_off channel=0 note=86 velocity=90 time=96\n",
      "note_on channel=0 note=85 velocity=100 time=0\n",
      "note_off channel=0 note=85 velocity=90 time=96\n",
      "note_on channel=0 note=84 velocity=100 time=0\n",
      "note_off channel=0 note=84 velocity=90 time=96\n",
      "note_on channel=0 note=83 velocity=100 time=0\n",
      "note_off channel=0 note=83 velocity=90 time=96\n",
      "note_on channel=0 note=84 velocity=100 time=0\n",
      "note_off channel=0 note=84 velocity=90 time=96\n",
      "note_on channel=0 note=83 velocity=100 time=0\n",
      "note_off channel=0 note=83 velocity=90 time=96\n",
      "note_on channel=0 note=82 velocity=100 time=0\n",
      "note_off channel=0 note=82 velocity=90 time=96\n",
      "note_on channel=0 note=81 velocity=100 time=0\n",
      "note_off channel=0 note=81 velocity=90 time=96\n",
      "note_on channel=0 note=80 velocity=100 time=0\n",
      "note_off channel=0 note=80 velocity=90 time=96\n",
      "note_on channel=0 note=81 velocity=100 time=0\n",
      "note_off channel=0 note=81 velocity=90 time=96\n",
      "note_on channel=0 note=82 velocity=100 time=0\n",
      "note_off channel=0 note=82 velocity=90 time=96\n",
      "note_on channel=0 note=83 velocity=100 time=0\n",
      "note_off channel=0 note=83 velocity=90 time=96\n",
      "note_on channel=0 note=84 velocity=100 time=0\n",
      "note_off channel=0 note=84 velocity=90 time=96\n",
      "note_on channel=0 note=85 velocity=100 time=0\n",
      "note_off channel=0 note=85 velocity=90 time=96\n",
      "note_on channel=0 note=86 velocity=100 time=0\n",
      "note_off channel=0 note=86 velocity=90 time=96\n",
      "note_on channel=0 note=87 velocity=100 time=0\n",
      "note_off channel=0 note=87 velocity=90 time=96\n",
      "note_on channel=0 note=88 velocity=100 time=0\n",
      "note_off channel=0 note=88 velocity=90 time=96\n",
      "note_on channel=0 note=89 velocity=100 time=0\n",
      "note_off channel=0 note=89 velocity=90 time=96\n",
      "note_on channel=0 note=88 velocity=100 time=0\n",
      "note_off channel=0 note=88 velocity=90 time=96\n",
      "note_on channel=0 note=87 velocity=100 time=0\n",
      "note_off channel=0 note=87 velocity=90 time=96\n",
      "note_on channel=0 note=88 velocity=100 time=0\n",
      "note_off channel=0 note=88 velocity=90 time=96\n",
      "note_on channel=0 note=90 velocity=100 time=0\n",
      "note_off channel=0 note=90 velocity=90 time=96\n",
      "note_on channel=0 note=91 velocity=100 time=0\n",
      "note_off channel=0 note=91 velocity=90 time=96\n",
      "note_on channel=0 note=92 velocity=100 time=0\n",
      "note_off channel=0 note=92 velocity=90 time=96\n",
      "note_on channel=0 note=93 velocity=100 time=0\n",
      "note_off channel=0 note=93 velocity=90 time=96\n",
      "note_on channel=0 note=92 velocity=100 time=0\n",
      "note_off channel=0 note=92 velocity=90 time=96\n",
      "note_on channel=0 note=91 velocity=100 time=0\n",
      "note_off channel=0 note=91 velocity=90 time=96\n",
      "note_on channel=0 note=90 velocity=100 time=0\n",
      "note_off channel=0 note=90 velocity=90 time=96\n",
      "note_on channel=0 note=91 velocity=100 time=0\n",
      "note_off channel=0 note=91 velocity=90 time=96\n",
      "note_on channel=0 note=90 velocity=100 time=0\n",
      "note_off channel=0 note=90 velocity=90 time=96\n",
      "note_on channel=0 note=89 velocity=100 time=0\n",
      "note_off channel=0 note=89 velocity=90 time=96\n",
      "note_on channel=0 note=88 velocity=100 time=0\n",
      "note_off channel=0 note=88 velocity=90 time=96\n",
      "note_on channel=0 note=89 velocity=100 time=0\n",
      "note_off channel=0 note=89 velocity=90 time=96\n",
      "note_on channel=0 note=88 velocity=100 time=0\n",
      "note_off channel=0 note=88 velocity=90 time=96\n",
      "note_on channel=0 note=87 velocity=100 time=0\n",
      "note_off channel=0 note=87 velocity=90 time=96\n",
      "note_on channel=0 note=86 velocity=100 time=0\n",
      "note_off channel=0 note=86 velocity=90 time=96\n",
      "note_on channel=0 note=85 velocity=100 time=0\n",
      "note_off channel=0 note=85 velocity=90 time=96\n",
      "note_on channel=0 note=84 velocity=100 time=0\n",
      "note_off channel=0 note=84 velocity=90 time=96\n",
      "note_on channel=0 note=83 velocity=100 time=0\n",
      "note_off channel=0 note=83 velocity=90 time=96\n",
      "note_on channel=0 note=82 velocity=100 time=0\n",
      "note_off channel=0 note=82 velocity=90 time=96\n",
      "note_on channel=0 note=81 velocity=100 time=0\n",
      "note_off channel=0 note=81 velocity=90 time=96\n",
      "note_on channel=0 note=80 velocity=100 time=0\n",
      "note_off channel=0 note=80 velocity=90 time=96\n",
      "note_on channel=0 note=79 velocity=100 time=0\n",
      "note_off channel=0 note=79 velocity=90 time=96\n",
      "note_on channel=0 note=78 velocity=100 time=0\n",
      "note_off channel=0 note=78 velocity=90 time=96\n",
      "note_on channel=0 note=79 velocity=100 time=0\n",
      "note_off channel=0 note=79 velocity=90 time=96\n",
      "note_on channel=0 note=78 velocity=100 time=0\n",
      "note_off channel=0 note=78 velocity=90 time=96\n",
      "note_on channel=0 note=77 velocity=100 time=0\n",
      "note_off channel=0 note=77 velocity=90 time=96\n",
      "note_on channel=0 note=76 velocity=100 time=0\n",
      "note_off channel=0 note=76 velocity=90 time=96\n",
      "note_on channel=0 note=77 velocity=100 time=0\n",
      "note_off channel=0 note=77 velocity=90 time=96\n",
      "note_on channel=0 note=76 velocity=100 time=0\n",
      "note_off channel=0 note=76 velocity=90 time=96\n",
      "note_on channel=0 note=75 velocity=100 time=0\n",
      "note_off channel=0 note=75 velocity=90 time=96\n",
      "note_on channel=0 note=74 velocity=100 time=0\n",
      "note_off channel=0 note=74 velocity=90 time=96\n",
      "note_on channel=0 note=73 velocity=100 time=0\n",
      "note_off channel=0 note=73 velocity=90 time=96\n",
      "note_on channel=0 note=72 velocity=100 time=0\n",
      "note_off channel=0 note=72 velocity=90 time=96\n",
      "note_on channel=0 note=71 velocity=100 time=0\n",
      "note_off channel=0 note=71 velocity=90 time=96\n",
      "note_on channel=0 note=70 velocity=100 time=0\n",
      "note_off channel=0 note=70 velocity=90 time=96\n",
      "note_on channel=0 note=69 velocity=100 time=0\n",
      "note_off channel=0 note=69 velocity=90 time=96\n",
      "note_on channel=0 note=70 velocity=100 time=0\n",
      "note_off channel=0 note=70 velocity=90 time=96\n",
      "note_on channel=0 note=69 velocity=100 time=0\n",
      "note_off channel=0 note=69 velocity=90 time=96\n",
      "note_on channel=0 note=68 velocity=100 time=0\n",
      "note_off channel=0 note=68 velocity=90 time=96\n",
      "note_on channel=0 note=69 velocity=100 time=0\n",
      "note_off channel=0 note=69 velocity=90 time=96\n",
      "note_on channel=0 note=70 velocity=100 time=0\n",
      "note_off channel=0 note=70 velocity=90 time=96\n",
      "note_on channel=0 note=69 velocity=100 time=0\n",
      "note_off channel=0 note=69 velocity=90 time=96\n",
      "note_on channel=0 note=68 velocity=100 time=0\n",
      "note_off channel=0 note=68 velocity=90 time=96\n",
      "note_on channel=0 note=69 velocity=100 time=0\n",
      "note_off channel=0 note=69 velocity=90 time=96\n",
      "note_on channel=0 note=70 velocity=100 time=0\n",
      "note_off channel=0 note=70 velocity=90 time=96\n",
      "note_on channel=0 note=69 velocity=100 time=0\n",
      "note_off channel=0 note=69 velocity=90 time=96\n",
      "note_on channel=0 note=68 velocity=100 time=0\n",
      "note_off channel=0 note=68 velocity=90 time=96\n",
      "note_on channel=0 note=69 velocity=100 time=0\n",
      "note_off channel=0 note=69 velocity=90 time=96\n",
      "note_on channel=0 note=71 velocity=100 time=0\n",
      "note_off channel=0 note=71 velocity=90 time=96\n",
      "note_on channel=0 note=72 velocity=100 time=0\n",
      "note_off channel=0 note=72 velocity=90 time=96\n",
      "note_on channel=0 note=74 velocity=100 time=0\n",
      "note_off channel=0 note=74 velocity=90 time=96\n",
      "note_on channel=0 note=76 velocity=100 time=0\n",
      "note_off channel=0 note=76 velocity=90 time=96\n",
      "note_on channel=0 note=77 velocity=100 time=0\n",
      "note_off channel=0 note=77 velocity=90 time=96\n",
      "note_on channel=0 note=76 velocity=100 time=0\n",
      "note_off channel=0 note=76 velocity=90 time=96\n",
      "note_on channel=0 note=75 velocity=100 time=0\n",
      "note_off channel=0 note=75 velocity=90 time=96\n",
      "note_on channel=0 note=76 velocity=100 time=0\n",
      "note_off channel=0 note=76 velocity=90 time=96\n",
      "note_on channel=0 note=77 velocity=100 time=0\n",
      "note_off channel=0 note=77 velocity=90 time=96\n",
      "note_on channel=0 note=76 velocity=100 time=0\n",
      "note_off channel=0 note=76 velocity=90 time=96\n",
      "note_on channel=0 note=75 velocity=100 time=0\n",
      "note_off channel=0 note=75 velocity=90 time=96\n",
      "note_on channel=0 note=76 velocity=100 time=0\n",
      "note_off channel=0 note=76 velocity=90 time=96\n",
      "note_on channel=0 note=77 velocity=100 time=0\n",
      "note_off channel=0 note=77 velocity=90 time=96\n",
      "note_on channel=0 note=76 velocity=100 time=0\n",
      "note_off channel=0 note=76 velocity=90 time=96\n",
      "note_on channel=0 note=75 velocity=100 time=0\n",
      "note_off channel=0 note=75 velocity=90 time=96\n",
      "note_on channel=0 note=76 velocity=100 time=0\n",
      "note_off channel=0 note=76 velocity=90 time=96\n",
      "note_on channel=0 note=78 velocity=100 time=0\n",
      "note_off channel=0 note=78 velocity=90 time=96\n",
      "note_on channel=0 note=79 velocity=100 time=0\n",
      "note_off channel=0 note=79 velocity=90 time=96\n",
      "note_on channel=0 note=80 velocity=100 time=0\n",
      "note_off channel=0 note=80 velocity=90 time=96\n",
      "note_on channel=0 note=72 velocity=100 time=0\n",
      "note_on channel=0 note=81 velocity=100 time=0\n",
      "note_off channel=0 note=72 velocity=90 time=192\n",
      "note_off channel=0 note=81 velocity=90 time=0\n",
      "note_on channel=0 note=64 velocity=100 time=192\n",
      "note_off channel=0 note=64 velocity=90 time=96\n",
      "note_on channel=0 note=66 velocity=100 time=0\n",
      "note_off channel=0 note=66 velocity=90 time=96\n",
      "note_on channel=0 note=67 velocity=100 time=0\n",
      "note_off channel=0 note=67 velocity=90 time=96\n",
      "note_on channel=0 note=68 velocity=100 time=0\n",
      "note_off channel=0 note=68 velocity=90 time=96\n",
      "note_on channel=0 note=69 velocity=100 time=0\n",
      "note_off channel=0 note=69 velocity=90 time=96\n",
      "note_on channel=0 note=70 velocity=100 time=0\n",
      "note_off channel=0 note=70 velocity=90 time=96\n",
      "note_on channel=0 note=71 velocity=100 time=0\n",
      "note_off channel=0 note=71 velocity=90 time=96\n",
      "note_on channel=0 note=72 velocity=100 time=0\n",
      "note_off channel=0 note=72 velocity=90 time=96\n",
      "note_on channel=0 note=73 velocity=100 time=0\n",
      "note_off channel=0 note=73 velocity=90 time=96\n",
      "note_on channel=0 note=74 velocity=100 time=0\n",
      "note_off channel=0 note=74 velocity=90 time=96\n",
      "note_on channel=0 note=75 velocity=100 time=0\n",
      "note_off channel=0 note=75 velocity=90 time=96\n",
      "note_on channel=0 note=76 velocity=100 time=0\n",
      "note_off channel=0 note=76 velocity=90 time=96\n",
      "note_on channel=0 note=77 velocity=100 time=0\n",
      "note_off channel=0 note=77 velocity=90 time=96\n",
      "note_on channel=0 note=78 velocity=100 time=0\n",
      "note_off channel=0 note=78 velocity=90 time=96\n",
      "note_on channel=0 note=79 velocity=100 time=0\n",
      "note_off channel=0 note=79 velocity=90 time=96\n",
      "note_on channel=0 note=80 velocity=100 time=0\n",
      "note_off channel=0 note=80 velocity=90 time=96\n",
      "note_on channel=0 note=81 velocity=100 time=0\n",
      "note_off channel=0 note=81 velocity=90 time=96\n",
      "note_on channel=0 note=82 velocity=100 time=0\n",
      "note_off channel=0 note=82 velocity=90 time=96\n",
      "note_on channel=0 note=83 velocity=100 time=0\n",
      "note_off channel=0 note=83 velocity=90 time=96\n",
      "note_on channel=0 note=84 velocity=100 time=0\n",
      "note_off channel=0 note=84 velocity=90 time=96\n",
      "note_on channel=0 note=85 velocity=100 time=0\n",
      "note_off channel=0 note=85 velocity=90 time=96\n",
      "note_on channel=0 note=86 velocity=100 time=0\n",
      "note_off channel=0 note=86 velocity=90 time=96\n",
      "note_on channel=0 note=87 velocity=100 time=0\n",
      "note_off channel=0 note=87 velocity=90 time=96\n",
      "note_on channel=0 note=88 velocity=100 time=0\n",
      "note_off channel=0 note=88 velocity=90 time=96\n",
      "note_on channel=0 note=89 velocity=100 time=0\n",
      "note_off channel=0 note=89 velocity=90 time=96\n",
      "note_on channel=0 note=90 velocity=100 time=0\n",
      "note_off channel=0 note=90 velocity=90 time=96\n",
      "note_on channel=0 note=91 velocity=100 time=0\n",
      "note_off channel=0 note=91 velocity=90 time=96\n",
      "note_on channel=0 note=92 velocity=100 time=0\n",
      "note_off channel=0 note=92 velocity=90 time=96\n",
      "note_on channel=0 note=93 velocity=100 time=0\n",
      "note_off channel=0 note=93 velocity=90 time=192\n",
      "note_on channel=0 note=84 velocity=100 time=192\n",
      "note_on channel=0 note=93 velocity=100 time=0\n",
      "note_off channel=0 note=84 velocity=90 time=192\n",
      "note_off channel=0 note=93 velocity=90 time=0\n",
      "note_on channel=0 note=57 velocity=100 time=192\n",
      "note_off channel=0 note=57 velocity=90 time=192\n",
      "note_on channel=0 note=72 velocity=100 time=192\n",
      "note_on channel=0 note=81 velocity=100 time=0\n",
      "note_off channel=0 note=72 velocity=90 time=192\n",
      "note_off channel=0 note=81 velocity=90 time=0\n",
      "note_on channel=0 note=45 velocity=100 time=192\n",
      "note_off channel=0 note=45 velocity=90 time=192\n",
      "MetaMessage('end_of_track', time=0)\n",
      "Track 2: Accompaniment\n",
      "Track 3: Pizz Strings\n"
     ]
    }
   ],
   "source": [
    "mid = mido.MidiFile('bee2.mid')\n",
    "note = 0\n",
    "time = 0\n",
    "i = 0\n",
    "fingers = []\n",
    "for i, track in enumerate(mid.tracks):\n",
    "    print('Track {}: {}'.format(i, track.name))\n",
    "    for msg in track:\n",
    "        if track.name == \"Melody\":\n",
    "            if i > 20:\n",
    "                print(msg)\n",
    "            i += 1\n",
    "            if msg.type == 'note_on':\n",
    "                time += msg.time\n",
    "                note = msg.note - 24\n",
    "                if note < \n",
    "                i += 1\n",
    "            if msg.type == 'note_off':\n",
    "                time += msg.time\n",
    "                d = {\n",
    "                    \"note\": notes[note],\n",
    "                    \"time\": time/1000*2,\n",
    "                    \"type\": 2\n",
    "                }\n",
    "                fingers.append(d)\n",
    "                time = 0"
   ]
  },
  {
   "cell_type": "code",
   "execution_count": 17,
   "metadata": {},
   "outputs": [
    {
     "data": {
      "text/plain": [
       "788"
      ]
     },
     "execution_count": 17,
     "metadata": {},
     "output_type": "execute_result"
    }
   ],
   "source": [
    "len(fingers)"
   ]
  },
  {
   "cell_type": "code",
   "execution_count": 18,
   "metadata": {},
   "outputs": [],
   "source": [
    "init_pos = {\n",
    "        \"offset\": -2.5,\n",
    "        \"r\": 6.0,\n",
    "        \"theta\": 47.0,\n",
    "        \"type\": 0\n",
    "    }\n",
    "phrase = []"
   ]
  },
  {
   "cell_type": "code",
   "execution_count": 19,
   "metadata": {},
   "outputs": [],
   "source": [
    "data = {'init_pos': init_pos, 'phrase': phrase, 'fingers': fingers, 'timestamp': datetime.now().strftime(\"%d/%m/%Y %H:%M:%S\")}\n",
    "path = \"C:/Users/ferna/Dropbox/UC/Magister/robot-flautista/exercises/bumblebee_completo.json\"\n",
    "with open(path, 'w') as file:\n",
    "    json.dump(data, file, indent=4, sort_keys=True)"
   ]
  },
  {
   "cell_type": "code",
   "execution_count": null,
   "metadata": {},
   "outputs": [],
   "source": []
  }
 ],
 "metadata": {
  "kernelspec": {
   "display_name": "Python 3",
   "language": "python",
   "name": "python3"
  },
  "language_info": {
   "codemirror_mode": {
    "name": "ipython",
    "version": 3
   },
   "file_extension": ".py",
   "mimetype": "text/x-python",
   "name": "python",
   "nbconvert_exporter": "python",
   "pygments_lexer": "ipython3",
   "version": "3.10.11"
  },
  "orig_nbformat": 4
 },
 "nbformat": 4,
 "nbformat_minor": 2
}
